<?xml version="1.0" encoding="UTF-8" standalone="no"?>
<!-- Created with Inkscape (http://www.inkscape.org/) -->

<svg
   width="324mm"
   height="145mm"
   viewBox="0 0 324 145"
   version="1.1"
   id="svg1"
   inkscape:version="1.3.2 (091e20e, 2023-11-25, custom)"
   sodipodi:docname="interactiepatronen.svg"
   xmlns:inkscape="http://www.inkscape.org/namespaces/inkscape"
   xmlns:sodipodi="http://sodipodi.sourceforge.net/DTD/sodipodi-0.dtd"
   xmlns="http://www.w3.org/2000/svg"
   xmlns:svg="http://www.w3.org/2000/svg">
  <sodipodi:namedview
     id="namedview1"
     pagecolor="#ffffff"
     bordercolor="#000000"
     borderopacity="0.25"
     inkscape:showpageshadow="2"
     inkscape:pageopacity="0.0"
     inkscape:pagecheckerboard="0"
     inkscape:deskcolor="#d1d1d1"
     inkscape:document-units="mm"
     inkscape:zoom="1.3336069"
     inkscape:cx="395.91877"
     inkscape:cy="561.25984"
     inkscape:window-width="4300"
     inkscape:window-height="1711"
     inkscape:window-x="2391"
     inkscape:window-y="-9"
     inkscape:window-maximized="1"
     inkscape:current-layer="layer1" />
  <defs
     id="defs1" />
  <g
     inkscape:label="Laag 1"
     inkscape:groupmode="layer"
     id="layer1">
    <g
       transform="matrix(0.26458333,0,0,0.26458333,-11.175918,-30.26931)"
       id="g60">
      <rect
         x="51"
         y="303"
         width="1204"
         height="168"
         fill="#eeece1"
         id="rect1" />
      <text
         font-family="Verdana, Verdana_MSFontService, sans-serif"
         font-style="italic"
         font-weight="700"
         font-size="16px"
         transform="translate(599.104,324)"
         id="text1">Traditionee</text>
      <text
         font-family="Verdana, Verdana_MSFontService, sans-serif"
         font-style="italic"
         font-weight="700"
         font-size="16px"
         transform="translate(701.771,324)"
         id="text2">l</text>
      <rect
         x="415.5"
         y="361.5"
         width="143"
         height="74"
         stroke="#000000"
         stroke-linejoin="round"
         stroke-miterlimit="10"
         fill="#ffffb5"
         id="rect2" />
      <text
         font-family="Verdana, Verdana_MSFontService, sans-serif"
         font-weight="400"
         font-size="16px"
         transform="translate(428.067,404)"
         id="text3">D</text>
      <text
         font-family="Verdana, Verdana_MSFontService, sans-serif"
         font-weight="400"
         font-size="16px"
         transform="translate(440.4,404)"
         id="text4">ienstverlener</text>
      <rect
         x="51"
         y="484"
         width="1204"
         height="168"
         fill="#eeece1"
         id="rect4" />
      <text
         font-family="Verdana, Verdana_MSFontService, sans-serif"
         font-style="italic"
         font-weight="700"
         font-size="16px"
         transform="translate(542.354,505)"
         id="text5">Ontzorgd door broker(s)</text>
      <rect
         x="51"
         y="123"
         width="1204"
         height="167"
         fill="#eeece1"
         id="rect5" />
      <text
         font-family="Verdana, Verdana_MSFontService, sans-serif"
         font-style="italic"
         font-weight="700"
         font-size="16px"
         transform="translate(569.188,144)"
         id="text6">Gebruiker centraal</text>
      <rect
         x="585.5"
         y="544.5"
         width="142"
         height="74"
         stroke="#000000"
         stroke-linejoin="round"
         stroke-miterlimit="10"
         fill="#ffffb5"
         id="rect6" />
      <text
         font-family="Verdana, Verdana_MSFontService, sans-serif"
         font-weight="400"
         font-size="16px"
         transform="translate(618.185,587)"
         id="text7">B</text>
      <text
         font-family="Verdana, Verdana_MSFontService, sans-serif"
         font-weight="400"
         font-size="16px"
         transform="translate(629.185,587)"
         id="text8">roker</text>
      <text
         font-family="Verdana, Verdana_MSFontService, sans-serif"
         font-weight="400"
         font-size="16px"
         transform="translate(671.365,587)"
         id="text9">(s)</text>
      <path
         d="M 4.71426e-7,-0.5 4,-0.499996 v 1 L -4.71426e-7,0.5 Z M 7,-0.499993 l 4,3e-6 v 1 l -4,-3e-6 z m 7,6e-6 4,4e-6 v 1 l -4,-4e-6 z m 7,7e-6 4,4e-6 v 1 l -4,-4e-6 z m 7,6e-6 4,4e-6 v 1 l -4,-4e-6 z m 7,7e-6 4,4e-6 v 1 l -4,-4e-6 z m 7,7e-6 4,3e-6 v 1 l -4,-3e-6 z m 7,6e-6 4,4e-6 v 1 l -4,-4e-6 z m 7,7e-6 4,4e-6 v 1 l -4,-4e-6 z m 7,6e-6 4,4e-6 v 1 l -4,-4e-6 z m 7,7e-6 4,4e-6 v 1 l -4,-4e-6 z m 7,7e-6 4,3e-6 v 1 l -4,-3e-6 z m 7,6e-6 4,4e-6 v 1 l -4,-4e-6 z m 7,7e-6 4,4e-6 v 1 l -4,-4e-6 z m 7,6e-6 4,4e-6 v 1 l -4,-4e-6 z m 5.35,-3.499992 8,4.000004987 -8,3.999995013 z"
         transform="matrix(-1,0,0,1,585.85,581.5)"
         id="path9" />
      <text
         font-family="Verdana, Verdana_MSFontService, sans-serif"
         font-weight="400"
         font-size="15px"
         transform="translate(734.477,602)"
         id="text10">authenticatie</text>
      <text
         font-family="Verdana, Verdana_MSFontService, sans-serif"
         font-weight="400"
         font-size="15px"
         transform="translate(830.643,602)"
         id="text11">-</text>
      <text
         font-family="Verdana, Verdana_MSFontService, sans-serif"
         font-weight="400"
         font-size="15px"
         transform="translate(748.89,619)"
         id="text12">verklaring</text>
      <path
         d="m 838.849,582.29 -4,-0.011 0.003,-1 4,0.011 z m -7,-0.019 -4,-0.01 0.003,-1 4,0.01 z m -7,-0.018 -4,-0.01 0.003,-1 4,0.01 z m -7,-0.018 -4,-0.01 0.003,-1 4,0.01 z m -7,-0.018 -4,-0.011 0.003,-1 4,0.011 z m -7,-0.018 -4,-0.011 0.003,-1 4,0.011 z m -7,-0.019 -4,-0.01 0.003,-1 4,0.01 z m -7,-0.018 -4,-0.01 0.003,-1 4,0.01 z m -7,-0.018 -4,-0.01 0.003,-1 4,0.01 z m -7,-0.018 -4,-0.011 0.003,-1 4,0.011 z m -7,-0.018 -4,-0.011 0.003,-1 4,0.011 z m -7,-0.019 -4,-0.01 0.003,-1 4,0.01 z m -7,-0.018 -4,-0.01 0.003,-1 4,0.01 z m -7,-0.018 -4,-0.01 0.003,-1 4,0.01 z m -7,-0.018 -4,-0.011 0.003,-1 4,0.011 z m -5.359,3.486 -7.99,-4.021 8.01,-3.979 z"
         id="path12" />
      <text
         font-family="Verdana, Verdana_MSFontService, sans-serif"
         font-weight="400"
         font-size="15px"
         transform="translate(483.62,604)"
         id="text13">verifieerbare</text>
      <text
         font-family="Verdana, Verdana_MSFontService, sans-serif"
         font-weight="400"
         font-size="15px"
         transform="translate(493.366,621)"
         id="text14">verklaring</text>
      <rect
         x="839.5"
         y="544.5"
         width="142"
         height="75"
         stroke="#000000"
         stroke-linejoin="round"
         stroke-miterlimit="10"
         fill="#ffffb5"
         id="rect14" />
      <text
         font-family="Verdana, Verdana_MSFontService, sans-serif"
         font-weight="400"
         font-size="16px"
         transform="translate(853.29,578)"
         id="text15">Authenticatie</text>
      <text
         font-family="Verdana, Verdana_MSFontService, sans-serif"
         font-weight="400"
         font-size="16px"
         transform="translate(959.377,578)"
         id="text16">-</text>
      <text
         font-family="Verdana, Verdana_MSFontService, sans-serif"
         font-weight="400"
         font-size="16px"
         transform="translate(885.67,597)"
         id="text17">dienst</text>
      <path
         d="M 0.00130066,-0.499998 4.00129,-0.489593 3.99869,0.510404 -0.00130066,0.499998 Z M 7.00128,-0.481789 11.0013,-0.471384 10.9987,0.528613 6.99868,0.518208 Z m 7.00002,0.018209 3.9999,0.010405 -0.0026,0.999997 -3.9999,-0.010405 z m 6.9999,0.018209 4,0.010406 -0.0026,0.999996 -4,-0.010405 z m 7,0.01821 4,0.010405 -0.0026,0.999997 -4,-0.010406 z m 7,0.018209 4,0.010405 -0.0026,0.999997 -4,-0.010405 z m 7,0.018209 3.9999,0.010405 -0.0026,0.999997 -3.9999,-0.010405 z m 6.9999,0.018209 4,0.010406 -0.0026,0.999996 -4,-0.010405 z m 7,0.01821 4,0.010405 -0.0026,0.999997 -4,-0.010406 z m 7,0.018209 4,0.010405 -0.0026,0.999997 -4,-0.010405 z m 7,0.018209 3.9999,0.010405 -0.0026,0.999997 -3.9999,-0.010405 z m 6.9999,0.018209 4,0.010406 -0.0026,0.999996 -4,-0.010405 z m 7,0.01821 4,0.010405 -0.0026,0.999997 -4,-0.010406 z m 7,0.018209 4,0.010405 -0.0026,0.999997 -4,-0.010405 z m 7,0.018209 4,0.010406 -0.003,0.999996 -3.9996,-0.010405 z m 5.36,-3.486071 7.989,4.020799 -8.01,3.979171 z"
         transform="matrix(-1,0,0,1,1092.85,581.5)"
         id="path17" />
      <text
         font-family="Verdana, Verdana_MSFontService, sans-serif"
         font-weight="400"
         font-size="15px"
         transform="translate(991.113,548)"
         id="text18">verifieerbare</text>
      <text
         font-family="Verdana, Verdana_MSFontService, sans-serif"
         font-weight="400"
         font-size="15px"
         transform="translate(1000.86,565)"
         id="text19">verklaring</text>
      <rect
         x="331.5"
         y="544.5"
         width="143"
         height="74"
         stroke="#000000"
         stroke-linejoin="round"
         stroke-miterlimit="10"
         fill="#ffffb5"
         id="rect19" />
      <text
         font-family="Verdana, Verdana_MSFontService, sans-serif"
         font-weight="400"
         font-size="16px"
         transform="translate(344.036,587)"
         id="text20">D</text>
      <text
         font-family="Verdana, Verdana_MSFontService, sans-serif"
         font-weight="400"
         font-size="16px"
         transform="translate(356.37,587)"
         id="text21">ienstverlener</text>
      <rect
         x="1093.5"
         y="544.5"
         width="142"
         height="74"
         stroke="#000000"
         stroke-linejoin="round"
         stroke-miterlimit="10"
         fill="#ffffb5"
         id="rect21" />
      <text
         font-family="Verdana, Verdana_MSFontService, sans-serif"
         font-weight="400"
         font-size="16px"
         transform="translate(1105.88,568)"
         id="text22">Aanbieder van</text>
      <text
         font-family="Verdana, Verdana_MSFontService, sans-serif"
         font-weight="400"
         font-size="16px"
         transform="translate(1120.31,587)"
         id="text23">identiteits</text>
      <text
         font-family="Verdana, Verdana_MSFontService, sans-serif"
         font-weight="400"
         font-size="16px"
         transform="translate(1199.81,587)"
         id="text24">-</text>
      <text
         font-family="Verdana, Verdana_MSFontService, sans-serif"
         font-weight="400"
         font-size="16px"
         transform="translate(1125.55,606)"
         id="text25">gegevens</text>
      <path
         d="m 753.87,399.29 -4,-0.006 10e-4,-1 4,0.006 z m -7,-0.011 -4,-0.006 10e-4,-1 4,0.006 z m -7,-0.01 -4,-0.006 10e-4,-1 4,0.006 z m -7,-0.011 -4,-0.005 10e-4,-1 4,0.005 z m -7,-0.01 -4,-0.006 10e-4,-1 4,0.006 z m -7,-0.01 -4,-0.006 10e-4,-1 4,0.006 z m -7,-0.011 -4,-0.006 10e-4,-1 4,0.006 z m -7,-0.01 -4,-0.006 10e-4,-1 4,0.006 z m -7,-0.01 -4,-0.006 10e-4,-1 4,0.006 z m -7,-0.011 -4,-0.006 10e-4,-1 4,0.006 z m -7,-0.01 -4,-0.006 10e-4,-1 4,0.006 z m -7,-0.01 -4,-0.006 10e-4,-1 4,0.006 z m -7,-0.011 -4,-0.006 10e-4,-1 4,0.006 z m -7,-0.01 -4,-0.006 10e-4,-1 4,0.006 z m -7,-0.011 -4,-0.006 10e-4,-1 4,0.006 z m -7,-0.01 -4,-0.006 10e-4,-1 4,0.006 z m -7,-0.01 -4,-0.006 10e-4,-1 4,0.006 z m -7,-0.011 -4,-0.006 10e-4,-1 4,0.006 z m -7,-0.01 -4,-0.006 10e-4,-1 4,0.006 z m -7,-0.011 -4,-0.005 10e-4,-1 4,0.005 z m -7,-0.01 -4,-0.006 10e-4,-1 4,0.006 z m -7,-0.01 -4,-0.006 10e-4,-1 4,0.006 z m -7,-0.011 -4,-0.006 10e-4,-1 4,0.006 z m -7,-0.01 -4,-0.006 10e-4,-1 4,0.006 z m -7,-0.01 -4,-0.006 10e-4,-1 4,0.006 z m -7,-0.011 -4,-0.006 10e-4,-1 4,0.006 z m -7,-0.01 -4,-0.006 10e-4,-1 4,0.006 z m -5.376,3.492 -7.994,-4.012 8.006,-3.988 z"
         id="path25" />
      <text
         font-family="Verdana, Verdana_MSFontService, sans-serif"
         font-weight="400"
         font-size="15px"
         transform="translate(610.821,421)"
         id="text26">authenticatie</text>
      <text
         font-family="Verdana, Verdana_MSFontService, sans-serif"
         font-weight="400"
         font-size="15px"
         transform="translate(706.987,421)"
         id="text27">-</text>
      <text
         font-family="Verdana, Verdana_MSFontService, sans-serif"
         font-weight="400"
         font-size="15px"
         transform="translate(625.234,438)"
         id="text28">verklaring</text>
      <rect
         x="753.5"
         y="361.5"
         width="143"
         height="75"
         stroke="#000000"
         stroke-linejoin="round"
         stroke-miterlimit="10"
         fill="#ffffb5"
         id="rect28" />
      <text
         font-family="Verdana, Verdana_MSFontService, sans-serif"
         font-weight="400"
         font-size="16px"
         transform="translate(767.615,395)"
         id="text29">Authenticatie</text>
      <text
         font-family="Verdana, Verdana_MSFontService, sans-serif"
         font-weight="400"
         font-size="16px"
         transform="translate(873.702,395)"
         id="text30">-</text>
      <text
         font-family="Verdana, Verdana_MSFontService, sans-serif"
         font-weight="400"
         font-size="16px"
         transform="translate(799.995,414)"
         id="text31">dienst</text>
      <path
         d="M 7.41306e-4,-0.499999 4.00074,-0.494069 3.99925,0.50593 -7.41306e-4,0.499999 Z M 7.00073,-0.489621 11.0007,-0.483691 10.9992,0.516308 6.99925,0.510378 Z m 6.99997,0.010378 4,0.005931 -0.0015,0.999998 -4,-0.00593 z m 7,0.010378 4,0.005931 -0.0015,0.999999 -4,-0.005931 z m 7,0.010379 4,0.00593 -0.0015,0.999999 -4,-0.00593 z m 7,0.010378 4,0.00593 -0.0015,0.999999 -4,-0.00593 z m 7,0.010378 4,0.005931 -0.0015,0.999999 -4,-0.005931 z m 7,0.010379 4,0.00593 -0.0015,0.999999 -4,-0.005931 z m 7,0.010378 4,0.00593 -0.0015,0.999999 -4,-0.00593 z m 7,0.010378 4,0.005931 -0.0015,0.999998 -4,-0.00593 z m 7,0.010378 4,0.005931 -0.0015,0.999999 -4,-0.005931 z m 6.9999,0.010379 4,0.00593 -0.0014,0.999999 -4,-0.00593 z m 7,0.010378 4,0.00593 -0.0014,0.999999 -4,-0.00593 z m 7,0.010378 4,0.005931 -0.0015,0.999999 -3.9999,-0.005931 z m 7,0.010379 4.0004,0.00593 -0.002,0.999999 -3.9999,-0.005931 z m 7.0004,0.010378 4,0.00593 -0.002,0.999999 -4,-0.00593 z m 7,0.010378 4,0.005931 -0.002,0.999998 -4,-0.00593 z m 7,0.010378 4,0.005931 -0.002,0.999999 -4,-0.005931 z m 7,0.010379 4,0.00593 -0.002,0.999999 -4,-0.00593 z m 7,0.010378 4,0.00593 -0.002,0.999999 -4,-0.00593 z m 7,0.010378 4,0.005931 -0.002,0.999998 -4,-0.00593 z m 7,0.010379 4,0.00593 -0.002,0.999999 -4,-0.005931 z m 7,0.010378 4,0.00593 -0.002,0.999999 -4,-0.00593 z m 7,0.010378 4,0.005931 -0.002,0.999998 -4,-0.00593 z m 7,0.010378 4,0.005931 -0.002,0.999999 -4,-0.005931 z m 7,0.010379 4,0.00593 -0.002,0.999999 -4,-0.005931 z m 7,0.010378 4,0.00593 -0.002,0.999999 -4,-0.00593 z m 5.375,-3.492036 7.994,4.011859 -8.006,3.988131 z"
         transform="matrix(-1,0,0,1,1091.87,398.5)"
         id="path31" />
      <text
         font-family="Verdana, Verdana_MSFontService, sans-serif"
         font-weight="400"
         font-size="15px"
         transform="translate(953.596,365)"
         id="text32">verifieerbare</text>
      <text
         font-family="Verdana, Verdana_MSFontService, sans-serif"
         font-weight="400"
         font-size="15px"
         transform="translate(963.343,382)"
         id="text33">verklaring</text>
      <rect
         x="1091.5"
         y="361.5"
         width="142"
         height="74"
         stroke="#000000"
         stroke-linejoin="round"
         stroke-miterlimit="10"
         fill="#ffffb5"
         id="rect33" />
      <text
         font-family="Verdana, Verdana_MSFontService, sans-serif"
         font-weight="400"
         font-size="16px"
         transform="translate(1104.23,385)"
         id="text34">Aanbieder van</text>
      <text
         font-family="Verdana, Verdana_MSFontService, sans-serif"
         font-weight="400"
         font-size="16px"
         transform="translate(1118.65,404)"
         id="text35">identiteits</text>
      <text
         font-family="Verdana, Verdana_MSFontService, sans-serif"
         font-weight="400"
         font-size="16px"
         transform="translate(1198.15,404)"
         id="text36">-</text>
      <text
         font-family="Verdana, Verdana_MSFontService, sans-serif"
         font-weight="400"
         font-size="16px"
         transform="translate(1123.89,423)"
         id="text37">gegevens</text>
      <path
         d="m 584.382,229.29 -4,-0.004 0.001,-1 4,0.004 z m -7,-0.006 -4,-0.003 0.001,-1 4,0.003 z m -7,-0.006 -4,-0.003 0.001,-1 4,0.003 z m -7,-0.005 -4,-0.003 0.001,-1 4,0.003 z m -7,-0.006 -4,-0.003 0.001,-1 4,0.003 z m -7,-0.005 -4,-0.003 0.001,-1 4,0.003 z m -7,-0.006 -4,-0.003 0.001,-1 4,0.003 z m -7,-0.005 -4,-0.004 0.001,-1 4,0.004 z m -7,-0.006 -4,-0.003 0.001,-1 4,0.003 z m -7,-0.006 -4,-0.003 0.001,-1 4,0.003 z m -7,-0.005 -4,-0.003 10e-4,-1 4,0.003 z m -7,-0.006 -4,-0.003 10e-4,-1 4,0.003 z m -7,-0.005 -4,-0.003 10e-4,-1 4,0.003 z m -7,-0.006 -4,-0.003 10e-4,-1 4,0.003 z m -7,-0.005 -4,-0.004 10e-4,-1 4,0.004 z m -7,-0.006 -4,-0.003 10e-4,-1 4,0.003 z m -7,-0.006 -4,-0.003 10e-4,-1 4,0.003 z m -7,-0.005 -4,-0.003 10e-4,-1 4,0.003 z m -7,-0.006 -4,-0.003 10e-4,-1 4,0.003 z m -7,-0.005 -4,-0.003 10e-4,-1 4,0.003 z m -7,-0.006 -4,-0.003 10e-4,-1 4,0.003 z m -7,-0.005 -4,-0.004 10e-4,-1 4,0.004 z m -7,-0.006 -4,-0.003 10e-4,-1 4,0.003 z m -7,-0.006 -4,-0.003 10e-4,-1 4,0.003 z m -7,-0.005 -4,-0.003 10e-4,-1 4,0.003 z m -7,-0.006 -4,-0.003 10e-4,-1 4,0.003 z m -7,-0.005 -4,-0.003 10e-4,-1 4,0.003 z m -7,-0.006 -4,-0.003 10e-4,-1 4,0.003 z m -7,-0.005 -4,-0.004 10e-4,-1 4,0.004 z m -7,-0.006 -4,-0.003 10e-4,-1 4,0.003 z m -7,-0.005 -4,-0.004 10e-4,-1 4,0.004 z m -7,-0.006 -4,-0.003 10e-4,-1 4,0.003 z m -7,-0.006 -4,-0.003 10e-4,-1 4,0.003 z m -7,-0.005 -4,-0.003 10e-4,-1 4,0.003 z m -7,-0.006 -4,-0.003 10e-4,-1 4,0.003 z m -7,-0.005 -4,-0.004 10e-4,-1 4,0.004 z m -7,-0.006 -4,-0.003 10e-4,-1 4,0.003 z m -7,-0.005 -4,-0.004 10e-4,-1 4,0.004 z m -7,-0.006 -4,-0.003 10e-4,-1 4,0.003 z m -7,-0.006 -4,-0.003 10e-4,-1 4,0.003 z m -7,-0.005 -4,-0.003 10e-4,-1 4,0.003 z m -7,-0.006 -4,-0.003 10e-4,-1 4,0.003 z m -7,-0.005 -4,-0.004 10e-4,-1 4,0.004 z m -7,-0.006 -4,-0.003 10e-4,-1 4,0.003 z m -7,-0.005 -4,-0.004 10e-4,-1 4,0.004 z m -7,-0.006 -4,-0.003 10e-4,-1 4,0.003 z m -7,-0.006 -4,-0.003 10e-4,-1 4,0.003 z m -7,-0.005 -4,-0.003 0.001,-1 4,0.003 z m -7,-0.006 -4,-0.003 0.001,-1 4,0.003 z m -7,-0.005 -4,-0.004 0.001,-1 4,0.004 z m -7,-0.006 -4,-0.003 0.001,-1 4,0.003 z m -7,-0.005 -0.215,-0.001 v -1 l 0.216,0.001 z m 1.115,3.5 -7.997,-4.006 8.003,-3.994 z"
         id="path37" />
      <text
         font-family="Verdana, Verdana_MSFontService, sans-serif"
         font-weight="400"
         font-size="15px"
         transform="translate(361.491,253)"
         id="text38">verifieerbare</text>
      <text
         font-family="Verdana, Verdana_MSFontService, sans-serif"
         font-weight="400"
         font-size="15px"
         transform="translate(371.238,270)"
         id="text39">verklaring</text>
      <rect
         x="584.5"
         y="191.5"
         width="142"
         height="75"
         stroke="#000000"
         stroke-linejoin="round"
         stroke-miterlimit="10"
         fill="#ffffb5"
         id="rect39" />
      <text
         font-family="Verdana, Verdana_MSFontService, sans-serif"
         font-weight="400"
         font-size="16px"
         transform="translate(615.838,235)"
         id="text40">Gebruiker</text>
      <path
         d="M 3.98011e-4,-0.5 4.0004,-0.496816 l -8e-4,1 L -3.98011e-4,0.5 Z M 7.0004,-0.494428 l 4,0.003184 -8e-4,1 -4,-0.003184 z m 7,0.005572 4,0.003185 -8e-4,0.999999 -4,-0.003184 z m 7,0.005573 4,0.003184 -8e-4,0.999999 -4,-0.003184 z m 7,0.005572 4,0.003184 -8e-4,1 -4,-0.003184 z m 7,0.005572 4,0.003184 -8e-4,1 -4,-0.003184 z m 7,0.005572 4,0.003184 -8e-4,1 -4,-0.003184 z m 7,0.005572 4,0.003184 -8e-4,1 -4,-0.003184 z m 7,0.005572 4,0.003184 -8e-4,1 -4,-0.003184 z m 7,0.005573 4,0.003184 -8e-4,0.999999 -4,-0.003184 z m 7,0.005572 4,0.003184 -8e-4,1 -4,-0.003185 z m 7,0.005572 4,0.003184 -8e-4,1 -4,-0.003184 z m 7,0.005572 4,0.003184 -8e-4,1 -4,-0.003184 z m 7,0.005572 4,0.003184 -8e-4,1 -4,-0.003184 z m 7,0.005572 3.9996,0.003184 v 1 L 97.9996,0.57801 Z m 6.9996,0.005573 4,0.003184 v 0.999999 l -4,-0.003184 z m 7,0.005572 4,0.003184 v 0.999999 l -4,-0.003184 z m 7,0.005572 4,0.003184 v 1 l -4,-0.003184 z m 7,0.005572 4,0.003184 v 1 l -4,-0.003184 z m 7,0.005572 4,0.003184 v 1 l -4,-0.003184 z m 7,0.005572 4,0.003184 v 1 l -4,-0.003184 z m 7,0.005572 4,0.003185 v 0.999999 l -4,-0.003184 z m 7,0.005573 4,0.003184 v 0.999999 l -4,-0.003184 z m 7,0.005572 4,0.003184 v 1 l -4,-0.003185 z m 7,0.005572 4,0.003184 v 1 l -4,-0.003184 z m 7,0.005572 4,0.003184 v 1 l -4,-0.003184 z m 7,0.005572 4,0.003184 v 1 l -4,-0.003184 z m 7,0.005572 4,0.003185 v 0.999999 l -4,-0.003184 z m 7,0.005573 4,0.003184 V 0.659204 L 196,0.65602 Z m 7,0.005572 4,0.003184 v 1 l -4,-0.003185 z m 7,0.005572 4,0.003184 v 1 l -4,-0.003184 z m 7,0.005572 4,0.003184 v 1 l -4,-0.003184 z m 7,0.005572 4,0.003184 v 1 l -4,-0.003184 z m 7,0.005572 4,0.003185 v 0.999999 l -4,-0.003184 z m 7,0.005573 4,0.003184 v 0.999999 l -4,-0.003184 z m 7,0.005572 4,0.003184 v 0.999999 l -4,-0.003184 z m 7,0.005572 4,0.003184 v 1 l -4,-0.003184 z m 7,0.005572 4,0.003184 v 1 L 259,0.70617 Z m 7,0.005572 4,0.003184 v 1 l -4,-0.003184 z m 7,0.005572 4,0.003184 v 1 l -4,-0.003184 z m 7,0.005573 4,0.003184 V 0.72607 l -4,-0.003184 z m 7,0.005572 4,0.003184 v 0.999999 l -4,-0.003184 z m 7,0.005572 4,0.003184 v 1 L 294,0.73403 Z m 7,0.005572 4,0.003184 v 1 l -4,-0.003184 z m 7,0.005572 4,0.003184 v 1 l -4,-0.003184 z m 7,0.005572 4,0.003184 v 1 l -4,-0.003184 z m 7,0.005572 4,0.003184 v 1 l -4,-0.003184 z m 7,0.005573 4,0.003184 v 0.999999 l -4,-0.003184 z m 7,0.005572 4,0.003184 v 1 l -4,-0.003185 z m 7,0.005572 4,0.003184 v 1 l -4,-0.003184 z m 7,0.005572 4,0.003184 -10e-4,1 L 350,0.778608 Z m 7,0.005572 0.216,1.72e-4 -0.001,1 -0.216,-1.72e-4 z m -1.114,-3.50089 7.997,4.006369 -8.004,3.993631 z"
         transform="matrix(-1,0,0,1,1090.38,242.5)"
         id="path40" />
      <text
         font-family="Verdana, Verdana_MSFontService, sans-serif"
         font-weight="400"
         font-size="15px"
         transform="translate(875.532,263)"
         id="text41">verifieerbare</text>
      <text
         font-family="Verdana, Verdana_MSFontService, sans-serif"
         font-weight="400"
         font-size="15px"
         transform="translate(885.279,280)"
         id="text42">verklaring</text>
      <rect
         x="78.500099"
         y="191.5"
         width="142"
         height="75"
         stroke="#000000"
         stroke-linejoin="round"
         stroke-miterlimit="10"
         fill="#ffffb5"
         id="rect42" />
      <text
         font-family="Verdana, Verdana_MSFontService, sans-serif"
         font-weight="400"
         font-size="16px"
         transform="translate(90.4907,235)"
         id="text43">D</text>
      <text
         font-family="Verdana, Verdana_MSFontService, sans-serif"
         font-weight="400"
         font-size="16px"
         transform="translate(102.824,235)"
         id="text44">ienstverlener</text>
      <rect
         x="1090.5"
         y="191.5"
         width="143"
         height="75"
         stroke="#000000"
         stroke-linejoin="round"
         stroke-miterlimit="10"
         fill="#ffffb5"
         id="rect44" />
      <text
         font-family="Verdana, Verdana_MSFontService, sans-serif"
         font-weight="400"
         font-size="16px"
         transform="translate(1103.68,216)"
         id="text45">Aanbieder van</text>
      <text
         font-family="Verdana, Verdana_MSFontService, sans-serif"
         font-weight="400"
         font-size="16px"
         transform="translate(1118.1,235)"
         id="text46">identiteits</text>
      <text
         font-family="Verdana, Verdana_MSFontService, sans-serif"
         font-weight="400"
         font-size="16px"
         transform="translate(1197.6,235)"
         id="text47">-</text>
      <text
         font-family="Verdana, Verdana_MSFontService, sans-serif"
         font-weight="400"
         font-size="16px"
         transform="translate(1123.34,254)"
         id="text48">gegevens</text>
      <path
         d="m 1164.45,618.5 v 4 h -1 v -4 z m 0,7 v 4 h -1 v -4 z m 0,7 v 4 h -1 v -4 z m 0,7 v 3 c 0,0.276 -0.22,0.5 -0.5,0.5 h -1 v -1 h 1 l -0.5,0.5 v -3 z m -4.5,3.5 h -4 v -1 h 4 z m -7,0 h -4 v -1 h 4 z m -7,0 h -4 v -1 h 4 z m -7,0 h -4 v -1 h 4 z m -7,0 h -4 v -1 h 4 z m -7,0 h -4 v -1 h 4 z m -7,0 h -4 v -1 h 4 z m -7,0 h -4 v -1 h 4 z m -7,0 h -4 v -1 h 4 z m -7,0 h -4 v -1 h 4 z m -7,0 h -4 v -1 h 4 z m -7,0 h -4 v -1 h 4 z m -7,0 h -4 v -1 h 4 z m -7,0 h -4 v -1 h 4 z m -7,0 h -4 v -1 h 4 z m -7,0 h -4 v -1 h 4 z m -7,0 h -4 v -1 h 4 z m -7,0 h -4 v -1 h 4 z m -7,0 h -4 v -1 h 4 z m -7,0 h -4 v -1 h 4 z m -7,0 h -4 v -1 h 4 z m -7,0 h -4 v -1 h 4 z m -7,0 h -4 v -1 h 4 z m -6.999,0 h -4 v -1 h 4 z m -7,0 h -4 v -1 h 4 z m -7,0 h -4 v -1 h 4 z m -7,0 h -4 v -1 h 4 z m -7,0 h -4 v -1 h 4 z m -7,0 h -4 v -1 h 4 z m -7,0 h -4 v -1 h 4 z m -7,0 h -4 v -1 h 4 z m -7,0 h -4 v -1 h 4 z m -7,0 h -4 v -1 h 4 z m -7,0 h -4 v -1 h 4 z m -7,0 h -4 v -1 h 4 z m -7,0 h -4 v -1 h 4 z m -7,0 h -4 v -1 h 4 z m -7,0 h -4 v -1 h 4 z m -7,0 h -4 v -1 h 4 z m -7,0 h -4 v -1 h 4 z m -7,0 h -4 v -1 h 4 z m -7,0 h -4 v -1 h 4 z m -7,0 h -4 v -1 h 4 z m -7,0 h -4 v -1 h 4 z m -7,0 h -4 v -1 h 4 z m -7,0 h -4 v -1 h 4 z m -7,0 h -4 v -1 h 4 z m -7,0 h -4 v -1 h 4 z m -7,0 h -4 v -1 h 4 z m -7,0 h -4 v -1 h 4 z m -7,0 h -4 v -1 h 4 z m -7,0 h -4 v -1 h 4 z m -7,0 h -4 v -1 h 4 z m -7,0 h -4 v -1 h 4 z m -7,0 h -4 v -1 h 4 z m -7,0 h -4 v -1 h 4 z m -7,0 h -4 v -1 h 4 z m -7,0 h -4 v -1 h 4 z m -7,0 h -4 v -1 h 4 z m -7,0 h -4 v -1 h 4 z m -7,0 h -4 v -1 h 4 z m -7,0 h -4 v -1 h 4 z m -7,0 h -4 v -1 h 4 z m -7,0 h -4 v -1 h 4 z m -7,0 h -4 v -1 h 4 z m -7,0 h -4 v -1 h 4 z m -7,0 h -4 v -1 h 4 z m -7,0 h -4 v -1 h 4 z m -7,0 h -4 v -1 h 4 z m -7,0 h -4 v -1 h 4 z m -7,0 h -4 v -1 h 4 z m -7,0 h -4 v -1 h 4 z M 656,641.951 v -4 h 1 v 4 z m 0,-7 v -4 h 1 v 4 z m 0,-7 v -2.784 h 1 v 2.784 z m -3.5,-1.451 4,-8 4,8 z"
         id="path48" />
      <text
         font-family="Verdana, Verdana_MSFontService, sans-serif"
         font-weight="400"
         font-size="15px"
         transform="translate(991.113,613)"
         id="text49">verifieerbare</text>
      <text
         font-family="Verdana, Verdana_MSFontService, sans-serif"
         font-weight="400"
         font-size="15px"
         transform="translate(1000.86,630)"
         id="text50">verklaring</text>
      <path
         d="m 1163.49,435.5 v 4 h -1 v -4 z m 0,7 v 4 h -1 v -4 z m 0,7 v 4 h -1 v -4 z m 0,7 v 3 c 0,0.276 -0.22,0.5 -0.5,0.5 h -1 v -1 h 1 l -0.5,0.5 v -3 z m -4.5,3.5 h -4 v -1 h 4 z m -7,0 h -4 v -1 h 4 z m -7,0 h -4 v -1 h 4 z m -7,0 h -4 v -1 h 4 z m -7,0 h -4 v -1 h 4 z m -7,0 h -4 v -1 h 4 z m -7,0 h -4 v -1 h 4 z m -7,0 h -4 v -1 h 4 z m -7,0 h -4 v -1 h 4 z m -7,0 h -4 v -1 h 4 z m -7,0 h -4 v -1 h 4 z m -7,0 h -4 v -1 h 4 z m -7,0 h -4 v -1 h 4 z m -7,0 h -4 v -1 h 4 z m -7,0 h -4 v -1 h 4 z m -7,0 h -4 v -1 h 4 z m -7,0 h -4 v -1 h 4 z m -7,0 h -4 v -1 h 4 z m -7,0 h -4 v -1 h 4 z m -7,0 h -4 v -1 h 4 z m -7,0 h -4 v -1 h 4 z m -7,0 h -4 v -1 h 4 z m -7,0 h -4 v -1 h 4 z m -6.999,0 h -4 v -1 h 4 z m -7,0 h -4 v -1 h 4 z m -7,0 h -4 v -1 h 4 z m -7,0 h -4 v -1 h 4 z m -7,0 h -4 v -1 h 4 z m -7,0 h -4 v -1 h 4 z m -7,0 h -4 v -1 h 4 z m -7,0 h -4 v -1 h 4 z m -7,0 h -4 v -1 h 4 z m -7,0 h -4 v -1 h 4 z m -7,0 h -4 v -1 h 4 z m -7,0 h -4 v -1 h 4 z m -7,0 h -4 v -1 h 4 z m -7,0 h -4 v -1 h 4 z m -7,0 h -4 v -1 h 4 z m -7,0 h -4 v -1 h 4 z m -7,0 h -4 v -1 h 4 z m -7,0 h -4 v -1 h 4 z m -7,0 h -4 v -1 h 4 z m -7,0 h -4 v -1 h 4 z m -7,0 h -4 v -1 h 4 z m -7,0 h -4 v -1 h 4 z m -7,0 h -4 v -1 h 4 z m -7,0 h -4 v -1 h 4 z m -7,0 h -4 v -1 h 4 z m -7,0 h -4 v -1 h 4 z m -7,0 h -4 v -1 h 4 z m -7,0 h -4 v -1 h 4 z m -7,0 h -4 v -1 h 4 z m -7,0 h -4 v -1 h 4 z m -7,0 h -4 v -1 h 4 z m -7,0 h -4 v -1 h 4 z m -7,0 h -4 v -1 h 4 z m -7,0 h -4 v -1 h 4 z m -7,0 h -4 v -1 h 4 z m -7,0 h -4 v -1 h 4 z m -7,0 h -4 v -1 h 4 z m -7,0 h -4 v -1 h 4 z m -7,0 h -4 v -1 h 4 z m -7,0 h -4 v -1 h 4 z m -7,0 h -4 v -1 h 4 z m -7,0 h -4 v -1 h 4 z m -7,0 h -4 v -1 h 4 z m -7,0 h -4 v -1 h 4 z m -7,0 h -4 v -1 h 4 z m -7,0 h -4 v -1 h 4 z m -7,0 h -4 v -1 h 4 z m -7,0 h -4 v -1 h 4 z m -7,0 h -4 v -1 h 4 z m -7,0 h -4 v -1 h 4 z m -7,0 h -4 v -1 h 4 z m -7,0 h -4 v -1 h 4 z m -7,0 h -4 v -1 h 4 z m -7,0 h -4 v -1 h 4 z m -7,0 h -4 v -1 h 4 z m -7,0 h -4 v -1 h 4 z m -7,0 h -4 v -1 h 4 z m -7,0 h -4 v -1 h 4 z m -7,0 h -4 v -1 h 4 z m -7,0 h -4 v -1 h 4 z m -7,0 h -4 v -1 h 4 z m -7,0 h -4 v -1 h 4 z m -7,0 h -4 v -1 h 4 z m -7,0 h -4 v -1 h 4 z m -7,0 h -4 v -1 h 4 z m -7,0 h -4 v -1 h 4 z m -7,0 h -4 v -1 h 4 z m -7,0 h -4 v -1 h 4 z m -7,0 h -4 v -1 h 4 z m -7,0 h -4 v -1 h 4 z m -7,0 h -4 v -1 h 4 z m -7,0 h -4 v -1 h 4 z m -7,0 h -4 v -1 h 4 z M 487,458.991 v -4 h 1 v 4 z m 0,-7 v -4 h 1 v 4 z m 0,-7 v -2.824 h 1 v 2.824 z m -3.5,-1.491 4,-8 4,8 z"
         id="path50" />
      <text
         font-family="Verdana, Verdana_MSFontService, sans-serif"
         font-weight="400"
         font-size="15px"
         transform="translate(953.596,427)"
         id="text51">verifieerbare</text>
      <text
         font-family="Verdana, Verdana_MSFontService, sans-serif"
         font-weight="400"
         font-size="15px"
         transform="translate(963.343,444)"
         id="text52">verklaring</text>
      <text
         font-family="Verdana, Verdana_MSFontService, sans-serif"
         font-weight="400"
         font-size="15px"
         transform="translate(379.491,213)"
         id="text53">verzoek</text>
      <rect
         x="78.500099"
         y="361.5"
         width="142"
         height="74"
         stroke="#000000"
         stroke-linejoin="round"
         stroke-miterlimit="10"
         fill="#ffffb5"
         id="rect53" />
      <text
         font-family="Verdana, Verdana_MSFontService, sans-serif"
         font-weight="400"
         font-size="16px"
         transform="translate(109.411,404)"
         id="text54">Gebruiker</text>
      <path
         d="m 220.5,398 h 4 v 1 h -4 z m 7,0 h 4 v 1 h -4 z m 7,0 h 4 v 1 h -4 z m 7,0 h 4 v 1 h -4 z m 7,0 h 4 v 1 h -4 z m 7,0 h 4 v 1 h -4 z m 7,0 h 4 v 1 h -4 z m 7,0 h 4 v 1 h -4 z m 7,0 h 4 v 1 h -4 z m 7,0 h 4 v 1 h -4 z m 7,0 h 4 v 1 h -4 z m 7,0 h 4 v 1 h -4 z m 7,0 h 4 v 1 h -4 z m 7,0 h 4 v 1 h -4 z m 7,0 h 4 v 1 h -4 z m 7,0 h 4 v 1 h -4 z m 7,0 h 4 v 1 h -4 z m 7,0 h 4 v 1 h -4 z m 7,0 h 4 v 1 h -4 z m 7,0 h 4 v 1 h -4 z m 7,0 h 4 v 1 h -4 z m 7,0 h 4 v 1 h -4 z m 7,0 h 4 v 1 h -4 z m 7,0 h 4 v 1 h -4 z m 7,0 h 4 v 1 h -4 z m 7,0 h 4 v 1 h -4 z m 7,0 h 4 v 1 h -4 z m 5.37,-3.5 8,4 -8,4 z"
         id="path54" />
      <rect
         x="78.500099"
         y="544.5"
         width="142"
         height="74"
         stroke="#000000"
         stroke-linejoin="round"
         stroke-miterlimit="10"
         fill="#ffffb5"
         id="rect54" />
      <text
         font-family="Verdana, Verdana_MSFontService, sans-serif"
         font-weight="400"
         font-size="16px"
         transform="translate(109.401,587)"
         id="text55">Gebruiker</text>
      <text
         font-family="Verdana, Verdana_MSFontService, sans-serif"
         font-weight="400"
         font-size="15px"
         transform="translate(294.001,418)"
         id="text56">verzoek</text>
      <path
         d="m 220.5,581 h 4 v 1 h -4 z m 7,0 h 4 v 1 h -4 z m 7,0 h 4 v 1 h -4 z m 7,0 h 4 v 1 h -4 z m 7,0 h 4 v 1 h -4 z m 7,0 h 4 v 1 h -4 z m 7,0 h 4 v 1 h -4 z m 7,0 h 4 v 1 h -4 z m 7,0 h 4 v 1 h -4 z m 7,0 h 4 v 1 h -4 z m 7,0 h 4 v 1 h -4 z m 7,0 h 4 v 1 h -4 z m 7,0 h 4 v 1 h -4 z m 7,0 h 4 v 1 h -4 z m 7,0 h 4 v 1 h -4 z m 5.35,-3.5 8,4 -8,4 z"
         id="path56" />
      <text
         font-family="Verdana, Verdana_MSFontService, sans-serif"
         font-weight="400"
         font-size="15px"
         transform="translate(246.937,603)"
         id="text57">verzoek</text>
      <path
         d="m 0,0.5 h -4 v -1 h 4 z m -7,0 h -4 v -1 h 4 z m -7,0 h -4 v -1 h 4 z m -7,0 h -3 L -23.5,0 v 1 h -1 V 0 c 0,-0.276142 0.2239,-0.5 0.5,-0.5 h 3 z M -23.5,4 v 4 h -1 V 4 Z m 0,7 v 4 h -1 v -4 z m 0,7 v 4 h -1 v -4 z m 0,7 v 4 h -1 v -4 z m 0,7 v 4 h -1 v -4 z m 0,7 v 4 h -1 v -4 z m 0,7 v 4 h -1 v -4 z m 0,7 v 4 h -1 v -4 z m 0,7 v 4 h -1 v -4 z m 0,7 v 4 h -1 v -4 z m 0,7 v 4 h -1 v -4 z m 0,7 v 4 h -1 v -4 z m 0,7 v 4 h -1 v -4 z m 0,7 v 4 h -1 v -4 z m 0,7 v 4 h -1 v -4 z m 0,7 v 4 h -1 v -4 z m 0,7 v 4 h -1 v -4 z m 0,7 v 4 h -1 v -4 z m 0,7 v 4 h -1 v -4 z m 0,7 v 4 h -1 v -4 z m 0,7 v 4 h -1 v -4 z m 0,7 v 4 h -1 v -4 z m 0,7 v 4 h -1 v -4 z m 0,7 v 4 h -1 v -4 z m 0,7 v 4 h -1 v -4 z m 0,7 v 4 h -1 v -4 z m 0,7 v 4 h -1 v -4 z m 0,7 v 4 h -1 v -4 z m 0,7 v 4 h -1 v -4 z m 0,7 v 4 h -1 v -4 z m 0,7 v 4 h -1 v -4 z m 0,7 v 4 h -1 v -4 z m 0,7 v 4 h -1 v -4 z m 0,7 v 4 h -1 v -4 z m 0,7 v 4 h -1 v -4 z m 0,7 v 4 h -1 v -4 z m 0,7 v 4 h -1 v -4 z m 0,7 v 4 h -1 v -4 z m 0,7 v 4 h -1 v -4 z m 0,7 v 4 h -1 v -4 z m 0,7 v 4 h -1 v -4 z m 0,7 v 4 h -1 v -4 z m 0,7 v 4 h -1 v -4 z m 0,7 v 4 h -1 v -4 z m 0,7 v 4 h -1 v -4 z m 0,7 v 4 h -1 v -4 z m 0,7 v 4 h -1 v -4 z m 0,7 v 4 h -1 v -4 z m 0,7 v 4 h -1 v -4 z m 0,7 v 4 h -1 v -4 z m 0,7 v 4 h -1 v -4 z m 0,7 v 4 h -1 v -4 z m 0,7 v 4 h -1 v -4 z m 0,7 v 4 h -1 v -4 z m 0,7 v 4 h -1 v -4 z m 0,7 v 4 h -1 v -4 z m 0,7 v 4 h -1 v -4 z m 0,7 v 4 h -1 v -4 z m 0,7 v 4 h -1 v -4 z m 0,7 v 4 h -1 v -4 z m 0,7 v 4 h -1 v -4 z m 0,7 v 4 h -1 v -4 z m 0,7 v 4 h -1 v -4 z m 0,7 v 4 h -1 v -4 z m 0,7 v 4 h -1 v -4 z m 0,7 v 4 h -1 v -4 z m 0,7 v 4 h -1 v -4 z m 0,7 v 4 h -1 v -4 z m 0,7 v 4 h -1 v -4 z m 0,7 v 4 h -1 v -4 z m 0,7 v 4 h -1 v -4 z m 0,7 v 4 h -1 v -4 z m 0,7 v 4 h -1 v -4 z m 0,7 v 4 h -1 v -4 z m 0,7 v 4 h -1 v -4 z m 0,7 v 4 h -1 v -4 z m 0,7 v 4 h -1 v -4 z m 0,7 v 4 h -1 v -4 z m 0,7 v 4 h -1 v -4 z m 0,7 v 4 h -1 v -4 z m 0,7 v 4 h -1 v -4 z m 0,7 v 4 h -1 v -4 z m 0,7 v 4 h -1 v -4 z m 0,7 v 4 h -1 v -4 z m 0,7 v 4 h -1 v -4 z m 0,7 v 4 h -1 v -4 z m 0,7 v 4 h -1 v -4 z m 0,7 v 4 h -1 v -4 z m 0,7 v 4 h -1 v -4 z m 0,7 v 4 h -1 v -4 z m 0,7 v 4 h -1 v -4 z m 0,7 v 4 h -1 v -4 z m 0,7 v 4 h -1 v -4 z m 0,7 v 4 h -1 v -4 z m 0,7 v 4 h -1 v -4 z m 0,7 v 4 h -1 v -4 z m 0.0094,5.991 h 4 v 1 h -4 z m 7,0 h 4 v 1 h -4 z m 7,0 h 3.11349 v 1 H -9.4906 Z m 1.78015,-3.5 8.000004,4 -8.000004,4 z"
         transform="matrix(0,1,1,0,149.5,361.5)"
         id="path57" />
      <text
         font-family="Verdana, Verdana_MSFontService, sans-serif"
         font-weight="400"
         font-size="15px"
         transform="translate(297.973,357)"
         id="text58">bewijs</text>
      <path
         d="m 0,0.5 h -4 v -1 h 4 z m -7,0 h -4 v -1 h 4 z m -7,0 h -4 v -1 h 4 z m -7,0 h -3 L -23.5,0 v 1 h -1 V 0 c 0,-0.276142 0.2239,-0.5 0.5,-0.5 h 3 z M -23.5,4 v 4 h -1 V 4 Z m 0,7 v 4 h -1 v -4 z m 0,7 v 4 h -1 v -4 z m 0,7 v 4 h -1 v -4 z m 0,7 v 4 h -1 v -4 z m 0,7 v 4 h -1 v -4 z m 0,7 v 4 h -1 v -4 z m 0,7 v 4 h -1 v -4 z m 0,7 v 4 h -1 v -4 z m 0,7 v 4 h -1 v -4 z m 0,7 v 4 h -1 v -4 z m 0,7 v 4 h -1 v -4 z m 0,7 v 4 h -1 v -4 z m 0,7 v 4 h -1 v -4 z m 0,7 v 4 h -1 v -4 z m 0,7 v 4 h -1 v -4 z m 0,7 v 4 h -1 v -4 z m 0,7 v 4 h -1 v -4 z m 0,7 v 4 h -1 v -4 z m 0,7 v 4 h -1 v -4 z m 0,7 v 4 h -1 v -4 z m 0,7 v 4 h -1 v -4 z m 0,7 v 4 h -1 v -4 z m 0,7 v 4 h -1 v -4 z m 0,7 v 4 h -1 v -4 z m 0,7 v 4 h -1 v -4 z m 0,7 v 4 h -1 v -4 z m 0,7 v 4 h -1 v -4 z m 0,7 v 4 h -1 v -4 z m 0,7 v 4 h -1 v -4 z m 0,7 v 4 h -1 v -4 z m 0,7 v 4 h -1 v -4 z m 0,7 v 4 h -1 v -4 z m 0,7 v 4 h -1 v -4 z m 0,7 v 4 h -1 v -4 z m 0,7 v 4 h -1 v -4 z m 0,7 v 4 h -1 v -4 z m 0,7 v 4 h -1 v -4 z m 0,7 v 4 h -1 v -4 z m 0,7 v 4 h -1 v -4 z m 0,7 v 4 h -1 v -4 z m 0,7 v 4 h -1 v -4 z m 0,7 v 4 h -1 v -4 z m 0,7 v 4 h -1 v -4 z m 0,7 v 4 h -1 v -4 z m 0,7 v 4 h -1 v -4 z m 0,7 v 4 h -1 v -4 z m 0,7 v 4 h -1 v -4 z m 0,7 v 4 h -1 v -4 z m 0,7 v 4 h -1 v -4 z m 0,7 v 4 h -1 v -4 z m 0,7 v 4 h -1 v -4 z m 0,7 v 4 h -1 v -4 z m 0,7 v 4 h -1 v -4 z m 0,7 v 4 h -1 v -4 z m 0,7 v 4 h -1 v -4 z m 0,7 v 4 h -1 v -4 z m 0,7 v 4 h -1 v -4 z m 0,7 v 4 h -1 v -4 z m 0,7 v 4 h -1 v -4 z m 0,7 v 4 h -1 v -4 z m 0,7 v 4 h -1 v -4 z m 0,7 v 4 h -1 v -4 z m 0,7 v 4 h -1 v -4 z m 0,7 v 4 h -1 v -4 z m 0,7 v 4 h -1 v -4 z m 0,7 v 4 h -1 v -4 z m 0,7 v 4 h -1 v -4 z m 0,7 v 4 h -1 v -4 z m 0,7 v 4 h -1 v -4 z m 0,7 v 4 h -1 v -4 z m 0,7 v 4 h -1 v -4 z m 0,7 v 4 h -1 v -4 z m 0,7 v 4 h -1 v -4 z m 0,7 v 4 h -1 v -4 z m 0,7 v 4 h -1 v -4 z m 0,7 v 4 h -1 v -4 z m 0,7 v 4 h -1 v -4 z m 0,7 v 4 h -1 v -4 z m 0,7 v 4 h -1 v -4 z m 0,7 v 4 h -1 v -4 z m 0,7 v 4 h -1 v -4 z m 0,7 v 4 h -1 v -4 z m 0,7 v 4 h -1 v -4 z m 0,7 v 4 h -1 v -4 z m 0,7 v 4 h -1 v -4 z m 0,7 v 4 h -1 v -4 z m 0,7 v 4 h -1 v -4 z m 0,7 v 4 h -1 v -4 z m 0,7 v 4 h -1 v -4 z m 0,7 v 4 h -1 v -4 z m 0,7 v 4 h -1 v -4 z m 0,7 v 4 h -1 v -4 z m 0,7 v 4 h -1 v -4 z m 0,7 v 4 h -1 v -4 z m 0,7 v 4 h -1 v -4 z m 0,7 v 4 h -1 v -4 z m 0,7 v 4 h -1 v -4 z m 0,7 v 4 h -1 v -4 z m 0,7 v 4 h -1 v -4 z m 0,7 v 4 h -1 v -4 z m 0,7 v 4 h -1 v -4 z m 0,7 v 4 h -1 v -4 z m 0,7 v 4 h -1 v -4 z m 0,7 v 4 h -1 v -4 z m 0,7 v 4 h -1 v -4 z m 0,7 v 4 h -1 v -4 z m 0,7 v 4 h -1 v -4 z m 0,7 v 1.176 l -0.5,-0.5 h 2.8243 v 1 H -24 c -0.2761,0 -0.5,-0.224 -0.5,-0.5 V 760 Z m 5.3243,0.676 h 4 v 1 h -4 z m 7,0 h 3.99995 v 1 h -3.99995 z m 3.46525,-3.5 8.000004,4 -8.000004,4 z"
         transform="matrix(0,1,1,0,149.5,544.5)"
         id="path58" />
      <text
         font-family="Verdana, Verdana_MSFontService, sans-serif"
         font-weight="400"
         font-size="15px"
         transform="translate(250.478,541)"
         id="text59">bewijs</text>
      <path
         d="m 727.5,221 h 4 v 1 h -4 z m 7,0 h 4 v 1 h -4 z m 7,0 h 4 v 1 h -4 z m 7,0 h 4 v 1 h -4 z m 7,0 h 4 v 1 h -4 z m 7,0 h 4 v 1 h -4 z m 7,0 h 4 v 1 h -4 z m 7,0 h 4 v 1 h -4 z m 7,0 h 4 v 1 h -4 z m 7,0 h 4 v 1 h -4 z m 7,0 h 4 v 1 h -4 z m 7,0 h 4 v 1 h -4 z m 7,0 h 4 v 1 h -4 z m 7,0 h 4 v 1 h -4 z m 7,0 h 4 v 1 h -4 z m 7,0 h 4 v 1 h -4 z m 7,0 h 4 v 1 h -4 z m 7,0 h 4 v 1 h -4 z m 7,0 h 4 v 1 h -4 z m 7,0 h 4 v 1 h -4 z m 7,0 h 4 v 1 h -4 z m 7,0 h 4 v 1 h -4 z m 7,0 h 4 v 1 h -4 z m 7,0 h 4 v 1 h -4 z m 7,0 h 4 v 1 h -4 z m 7,0 h 4 v 1 h -4 z m 7,0 h 4 v 1 h -4 z m 7,0 h 4 v 1 h -4 z m 7,0 h 4 v 1 h -4 z m 7,0 h 4 v 1 h -4 z m 7,0 h 4 v 1 h -4 z m 7,0 h 4 v 1 h -4 z m 7,0 h 4 v 1 h -4 z m 7,0 h 4 v 1 h -4 z m 7,0 h 4 v 1 h -4 z m 7,0 h 4 v 1 h -4 z m 7,0 h 4 v 1 h -4 z m 7,0 h 4 v 1 h -4 z m 7,0 h 4 v 1 h -4 z m 7,0 h 4 v 1 h -4 z m 7,0 h 4 v 1 h -4 z m 7,0 h 4 v 1 h -4 z m 7,0 h 4 v 1 h -4 z m 7,0 h 4 v 1 h -4 z m 7,0 h 4 v 1 h -4 z m 7,0 h 4 v 1 h -4 z m 7,0 h 4 v 1 h -4 z m 7,0 h 4 v 1 h -4 z m 7,0 h 4 v 1 h -4 z m 7,0 h 4 v 1 h -4 z m 7,0 h 4 v 1 h -4 z m 4.87,-3.5 8,4 -8,4 z"
         id="path59" />
      <text
         font-family="Verdana, Verdana_MSFontService, sans-serif"
         font-weight="400"
         font-size="15px"
         transform="translate(892.037,211)"
         id="text60">bewijs</text>
    </g>
  </g>
</svg>
