<?xml version="1.0" encoding="UTF-8" standalone="no"?>
<!-- Created with Inkscape (http://www.inkscape.org/) -->

<svg
   width="325mm"
   height="130mm"
   viewBox="0 0 325 130"
   version="1.1"
   id="svg1"
   inkscape:version="1.3.2 (091e20e, 2023-11-25, custom)"
   sodipodi:docname="kernrollen.svg"
   xmlns:inkscape="http://www.inkscape.org/namespaces/inkscape"
   xmlns:sodipodi="http://sodipodi.sourceforge.net/DTD/sodipodi-0.dtd"
   xmlns="http://www.w3.org/2000/svg"
   xmlns:svg="http://www.w3.org/2000/svg">
  <sodipodi:namedview
     id="namedview1"
     pagecolor="#ffffff"
     bordercolor="#000000"
     borderopacity="0.25"
     inkscape:showpageshadow="2"
     inkscape:pageopacity="0.0"
     inkscape:pagecheckerboard="0"
     inkscape:deskcolor="#d1d1d1"
     inkscape:document-units="mm"
     inkscape:zoom="1.0449705"
     inkscape:cx="397.61888"
     inkscape:cy="561.25986"
     inkscape:window-width="3440"
     inkscape:window-height="1369"
     inkscape:window-x="1912"
     inkscape:window-y="-8"
     inkscape:window-maximized="1"
     inkscape:current-layer="layer1" />
  <defs
     id="defs1" />
  <g
     inkscape:label="Laag 1"
     inkscape:groupmode="layer"
     id="layer1">
    <g
       transform="matrix(0.26458333,0,0,0.26458333,-4.5722292,-50.242959)"
       id="g41">
      <rect
         x="381.5"
         y="401.5"
         width="172"
         height="66"
         stroke="#000000"
         stroke-linejoin="round"
         stroke-miterlimit="10"
         fill="#ffffb5"
         id="rect1" />
      <text
         font-family="Verdana, Verdana_MSFontService, sans-serif"
         font-weight="400"
         font-size="16px"
         transform="translate(440.685,441)"
         id="text1">B</text>
      <text
         font-family="Verdana, Verdana_MSFontService, sans-serif"
         font-weight="400"
         font-size="16px"
         transform="translate(451.685,441)"
         id="text2">roker</text>
      <path
         d="M 3.34776e-7,-0.5 4,-0.499997 v 1 L -3.34776e-7,0.5 Z M 7,-0.499995 l 4,2e-6 v 1 l -4,-2e-6 z m 7,4e-6 4,3e-6 v 1 l -4,-3e-6 z m 7,5e-6 4,3e-6 v 1 l -4,-3e-6 z m 7,5e-6 4,2e-6 v 1 l -4,-2e-6 z m 7,4e-6 4,3e-6 v 1 l -4,-3e-6 z m 7,5e-6 4,3e-6 v 1 l -4,-3e-6 z m 7,5e-6 4,2e-6 v 1 l -4,-2e-6 z m 7,4e-6 4,3e-6 v 1 l -4,-3e-6 z m 7,5e-6 4,3e-6 v 1 l -4,-3e-6 z m 7,5e-6 4,3e-6 v 1 l -4,-3e-6 z m 7,5e-6 4,2e-6 v 1 l -4,-2e-6 z m 7,4e-6 4,3e-6 v 1 l -4,-3e-6 z m 7,5e-6 4,3e-6 v 1 l -4,-3e-6 z m 7,5e-6 4,2e-6 v 1 l -4,-2e-6 z m 7,4e-6 4,3e-6 v 1 l -4,-3e-6 z m 7,5e-6 4,3e-6 v 1 l -4,-3e-6 z m 7,5e-6 4,2e-6 v 1 l -4,-2e-6 z m 7,4e-6 4,3e-6 v 1 l -4,-3e-6 z m 7,5e-6 4,3e-6 v 1 l -4,-3e-6 z m 7,5e-6 4,2e-6 v 1 l -4,-2e-6 z m 7,4e-6 3.135,3e-6 V 0.5001 l -3.135,-2e-6 z m 1.801,-3.499998 8,4.000004987 -8,3.999995013 z"
         transform="matrix(-1,0,0,1,381.302,434.5)"
         id="path2" />
      <text
         font-family="Verdana, Verdana_MSFontService, sans-serif"
         font-weight="400"
         font-size="15px"
         transform="translate(581.403,404)"
         id="text3">authenticatie</text>
      <text
         font-family="Verdana, Verdana_MSFontService, sans-serif"
         font-weight="400"
         font-size="15px"
         transform="translate(677.57,404)"
         id="text4">-</text>
      <text
         font-family="Verdana, Verdana_MSFontService, sans-serif"
         font-weight="400"
         font-size="15px"
         transform="translate(595.817,421)"
         id="text5">verklaring</text>
      <path
         d="m 710.956,435.254 -4,-0.006 10e-4,-1 4,0.006 z m -7,-0.011 -4,-0.006 10e-4,-1 4,0.006 z m -7,-0.011 -4,-0.007 10e-4,-1 4,0.007 z m -7,-0.012 -4,-0.006 10e-4,-1 4,0.006 z m -7,-0.011 -4,-0.006 10e-4,-1 4,0.006 z m -7,-0.011 -4,-0.007 10e-4,-1 4,0.007 z m -7,-0.011 -4,-0.007 10e-4,-1 4,0.007 z m -7,-0.012 -4,-0.006 10e-4,-1 4,0.006 z m -7,-0.011 -4,-0.006 10e-4,-1 4,0.006 z m -7,-0.011 -4,-0.007 10e-4,-1 4,0.007 z m -7,-0.012 -4,-0.006 10e-4,-1 4,0.006 z m -7,-0.011 -4,-0.006 10e-4,-1 4,0.006 z m -7,-0.011 -4,-0.007 10e-4,-1 4,0.007 z m -7,-0.012 -4,-0.006 0.002,-1 3.999,0.006 z m -7,-0.011 -4,-0.006 0.002,-1 4,0.006 z m -7,-0.011 -4,-0.007 0.002,-1 4,0.007 z m -7,-0.012 -4,-0.006 0.002,-1 4,0.006 z m -7,-0.011 -4,-0.006 0.002,-1 4,0.006 z m -7,-0.011 -4,-0.007 0.002,-1 4,0.007 z m -7,-0.011 -4,-0.007 0.002,-1 4,0.007 z m -7,-0.012 -4,-0.006 0.002,-1 4,0.006 z m -7,-0.011 -3.79,-0.006 0.002,-1 3.79,0.006 z m -2.462,3.496 -7.994,-4.013 8.007,-3.987 z"
         id="path5" />
      <text
         font-family="Verdana, Verdana_MSFontService, sans-serif"
         font-weight="400"
         font-size="15px"
         transform="translate(253.856,404)"
         id="text6">authenticatie</text>
      <text
         font-family="Verdana, Verdana_MSFontService, sans-serif"
         font-weight="400"
         font-size="15px"
         transform="translate(350.022,404)"
         id="text7">-</text>
      <text
         font-family="Verdana, Verdana_MSFontService, sans-serif"
         font-weight="400"
         font-size="15px"
         transform="translate(268.269,421)"
         id="text8">verklaring</text>
      <rect
         x="1043.5"
         y="401.5"
         width="172"
         height="66"
         stroke="#000000"
         stroke-linejoin="round"
         stroke-miterlimit="10"
         fill="#ffffb5"
         id="rect8" />
      <text
         font-family="Verdana, Verdana_MSFontService, sans-serif"
         font-weight="400"
         font-size="16px"
         transform="translate(1071.19,431)"
         id="text9">Aanbieder van</text>
      <text
         font-family="Verdana, Verdana_MSFontService, sans-serif"
         font-weight="400"
         font-size="16px"
         transform="translate(1051.11,450)"
         id="text10">identiteitsgegevens</text>
      <text
         font-family="Verdana, Verdana_MSFontService, sans-serif"
         font-weight="400"
         font-size="15px"
         transform="translate(879.435,326)"
         id="text11">verifieerbare verklaring</text>
      <rect
         x="51.500099"
         y="398.5"
         width="173"
         height="66"
         stroke="#000000"
         stroke-linejoin="round"
         stroke-miterlimit="10"
         fill="#ffffb5"
         id="rect11" />
      <text
         font-family="Verdana, Verdana_MSFontService, sans-serif"
         font-weight="400"
         font-size="16px"
         transform="translate(78.9819,437)"
         id="text12">D</text>
      <text
         font-family="Verdana, Verdana_MSFontService, sans-serif"
         font-weight="400"
         font-size="16px"
         transform="translate(91.3153,437)"
         id="text13">ienstverlener</text>
      <rect
         x="711.5"
         y="402.5"
         width="172"
         height="65"
         stroke="#000000"
         stroke-linejoin="round"
         stroke-miterlimit="10"
         fill="#ffffb5"
         id="rect13" />
      <text
         font-family="Verdana, Verdana_MSFontService, sans-serif"
         font-weight="400"
         font-size="16px"
         transform="translate(740.345,431)"
         id="text14">Authenticatie</text>
      <text
         font-family="Verdana, Verdana_MSFontService, sans-serif"
         font-weight="400"
         font-size="16px"
         transform="translate(846.432,431)"
         id="text15">-</text>
      <text
         font-family="Verdana, Verdana_MSFontService, sans-serif"
         font-weight="400"
         font-size="16px"
         transform="translate(772.725,450)"
         id="text16">dienst</text>
      <rect
         x="712.5"
         y="575.5"
         width="172"
         height="65"
         stroke="#000000"
         stroke-linejoin="round"
         stroke-miterlimit="10"
         fill="#ffffb5"
         id="rect16" />
      <text
         font-family="Verdana, Verdana_MSFontService, sans-serif"
         font-weight="400"
         font-size="16px"
         transform="translate(758.806,604)"
         id="text17">M</text>
      <text
         font-family="Verdana, Verdana_MSFontService, sans-serif"
         font-weight="400"
         font-size="16px"
         transform="translate(772.306,604)"
         id="text18">iddelen</text>
      <text
         font-family="Verdana, Verdana_MSFontService, sans-serif"
         font-weight="400"
         font-size="16px"
         transform="translate(830.139,604)"
         id="text19">-</text>
      <text
         font-family="Verdana, Verdana_MSFontService, sans-serif"
         font-weight="400"
         font-size="16px"
         transform="translate(765.126,623)"
         id="text20">uitgever</text>
      <path
         d="m 798.084,574.715 -0.04,-3.999 1,-0.011 0.04,4 z m -0.071,-6.999 -0.04,-4 1,-0.01 0.04,4 z m -0.07,-7 -0.041,-4 1,-0.01 0.041,4 z m -0.071,-7 -0.041,-3.999 1,-0.011 0.041,4 z m -0.071,-6.999 -0.04,-4 0.999,-0.01 0.041,4 z m -0.071,-7 -0.04,-4 1,-0.01 0.04,4 z m -0.071,-7 -0.04,-3.999 1,-0.01 0.04,3.999 z m -0.07,-6.999 -0.041,-4 1,-0.01 0.041,4 z m -0.071,-7 -0.041,-4 1,-0.01 0.041,4 z m -0.071,-6.999 -0.04,-4 1,-0.01 0.04,3.999 z m -0.071,-7 -0.04,-4 1,-0.01 0.04,4 z m -0.07,-7 -0.041,-4 1,-0.01 0.041,4 z m -0.071,-6.999 -0.041,-4 1,-0.01 0.041,4 z m -0.071,-7 -0.04,-4 1,-0.01 0.04,4 z m -0.071,-7 -0.025,-2.549 0.999,-0.01 0.026,2.549 z m -3.512,-1.18 3.919,-8.04 4.081,7.959 z"
         id="path20" />
      <text
         font-family="Verdana, Verdana_MSFontService, sans-serif"
         font-weight="400"
         font-size="15px"
         transform="translate(807.283,516)"
         id="text21">identificatie</text>
      <text
         font-family="Verdana, Verdana_MSFontService, sans-serif"
         font-weight="400"
         font-size="15px"
         transform="translate(892.45,516)"
         id="text22">-</text>
      <text
         font-family="Verdana, Verdana_MSFontService, sans-serif"
         font-weight="400"
         font-size="15px"
         transform="translate(828.53,533)"
         id="text23">middel</text>
      <rect
         x="711.5"
         y="224.5"
         width="172"
         height="65"
         stroke="#000000"
         stroke-linejoin="round"
         stroke-miterlimit="10"
         fill="#ffffb5"
         id="rect23" />
      <text
         font-family="Verdana, Verdana_MSFontService, sans-serif"
         font-weight="400"
         font-size="16px"
         transform="translate(745.805,253)"
         id="text24">M</text>
      <text
         font-family="Verdana, Verdana_MSFontService, sans-serif"
         font-weight="400"
         font-size="16px"
         transform="translate(759.305,253)"
         id="text25">achtigings</text>
      <text
         font-family="Verdana, Verdana_MSFontService, sans-serif"
         font-weight="400"
         font-size="16px"
         transform="translate(840.972,253)"
         id="text26">-</text>
      <text
         font-family="Verdana, Verdana_MSFontService, sans-serif"
         font-weight="400"
         font-size="16px"
         transform="translate(772.725,272)"
         id="text27">dienst</text>
      <text
         font-family="Verdana, Verdana_MSFontService, sans-serif"
         font-weight="400"
         font-size="15px"
         transform="translate(616.211,233)"
         id="text28">machtiging</text>
      <path
         d="m 0,-0.5 h 4 v 1 H 0 Z m 7,0 h 4 v 1 H 7 Z m 7,0 h 4 v 1 h -4 z m 7,0 h 4 v 1 h -4 z m 7,0 h 4 v 1 h -4 z m 7,0 h 4 v 1 h -4 z m 7,0 h 4 v 1 h -4 z m 7,0 h 4 v 1 h -4 z m 7,0 h 4 v 1 h -4 z m 7,0 h 4 v 1 h -4 z m 7,0 h 4 v 1 h -4 z m 7,0 h 4 v 1 h -4 z m 7,0 h 4 v 1 h -4 z m 7,0 h 4 v 1 h -4 z m 7,0 h 4 v 1 h -4 z m 7,0 h 4 v 1 h -4 z m 7,0 h 4 v 1 h -4 z m 7,0 h 4 v 1 h -4 z m 7,0 h 4 v 1 h -4 z m 7,0 h 4 v 1 h -4 z m 7,0 h 4 v 1 h -4 z m 7,0 h 4 v 1 h -4 z m 7,0 h 4 v 1 h -4 z m 7,0 h 4 v 1 h -4 z m 7,0 h 4 v 1 h -4 z m 7,0 h 4 v 1 h -4 z m 7,0 h 4 v 1 h -4 z m 7,0 h 4 v 1 h -4 z m 7,0 h 4 v 1 h -4 z m 7,0 h 4 v 1 h -4 z m 7,0 h 4 v 1 h -4 z m 7,0 h 4 v 1 h -4 z m 7,0 h 4 v 1 h -4 z m 7,0 h 4 v 1 h -4 z m 7,0 h 4 v 1 h -4 z m 7,0 h 4 v 1 h -4 z m 7,0 h 4 v 1 h -4 z m 7,0 h 4 v 1 h -4 z m 7,0 h 4 v 1 h -4 z m 7,0 h 4 v 1 h -4 z m 7,0 h 4 v 1 h -4 z m 7,0 h 4 v 1 h -4 z m 7,0 h 4 v 1 h -4 z m 7,0 h 4 v 1 h -4 z m 7,0 h 4 v 1 h -4 z m 7,0 h 4 v 1 h -4 z m 7,0 h 4 v 1 h -4 z m 7,0 h 4 v 1 h -4 z m 7,0 h 4 v 1 h -4 z m 7,0 h 4 v 1 h -4 z m 7,0 h 4 v 1 h -4 z m 7,0 h 4 v 1 h -4 z m 7,0 h 4 v 1 h -4 z m 7,0 h 4 v 1 h -4 z m 7,0 h 4 v 1 h -4 z m 7,0 h 4 v 1 h -4 z m 7,0 h 4 v 1 h -4 z m 7,0 h 4 v 1 h -4 z m 7,0 h 4 v 1 h -4 z m 7,0 h 4 v 1 h -4 z m 7,0 h 4 v 1 h -4 z m 7,0 h 4 v 1 h -4 z m 7,0 h 4 v 1 h -4 z m 7,0 h 4 v 1 h -4 z m 7,0 h 4 v 1 h -4 z m 7,0 h 4 v 1 h -4 z m 7,0 h 4 v 1 h -4 z m 7,0 h 4 v 1 h -4 z m 7,0 h 4 v 1 h -4 z m 7,0 h 4 v 1 h -4 z m 7,0 h 4 v 1 h -4 z m 7,0 h 4 v 1 h -4 z m 7,0 h 4 v 1 h -4 z m 7,0 h 4 v 1 h -4 z m 7,0 h 4 v 1 h -4 z m 7,0 h 4 v 1 h -4 z m 7,0 h 4 v 1 h -4 z m 7,0 h 4 v 1 h -4 z m 7,0 h 4 v 1 h -4 z m 7,0 h 4 v 1 h -4 z m 7,0 h 4 v 1 h -4 z m 7,0 h 4 v 1 h -4 z m 6.898,1.10168 v 4 h -1 v -4 z m 0,7 v 4.00002 h -1 V 7.60168 Z m 0,7.00002 v 4 h -1 v -4 z m 0,7 v 4 h -1 v -4 z m 0,7 v 4 h -1 v -4 z m 0,7 v 4 h -1 v -4 z m 0,7 v 4 h -1 v -4 z m 0,7 v 4 h -1 v -4 z m 0,7 v 4 h -1 v -4 z m 0,7 v 4 h -1 v -4 z m 0,7 v 4 h -1 v -4 z m 0,7 v 4 h -1 v -4 z m 0,7 v 4 h -1 v -4 z m 0,7 v 4 h -1 v -4 z m 0,7 v 4.0003 h -1 v -4.0003 z m 0,7.0003 v 4 h -1 v -4 z m 0,7 v 4 h -1 v -4 z m 0,7 v 4 h -1 v -4 z m 0,7 v 4 h -1 v -4 z m 0,7 v 4 h -1 v -4 z m 0,7 v 4 h -1 v -4 z m 3.5,5.487 -4,8 -4,-8 z"
         transform="matrix(-1,0,0,1,710.898,244.5)"
         id="path28" />
      <path
         d="M 0,0 H 63.7121 V 944.001"
         stroke="#000000"
         stroke-linejoin="round"
         stroke-miterlimit="10"
         stroke-dasharray="4, 3"
         fill="none"
         fill-rule="evenodd"
         transform="matrix(0,-1,-1,0,1129.5,402.212)"
         id="path29" />
      <text
         font-family="Verdana, Verdana_MSFontService, sans-serif"
         font-weight="400"
         font-size="15px"
         transform="translate(253.427,455)"
         id="text29">bevoegdheids</text>
      <text
         font-family="Verdana, Verdana_MSFontService, sans-serif"
         font-weight="400"
         font-size="15px"
         transform="translate(354.594,455)"
         id="text30">-</text>
      <text
         font-family="Verdana, Verdana_MSFontService, sans-serif"
         font-weight="400"
         font-size="15px"
         transform="translate(270.34,472)"
         id="text31">verklaring</text>
      <path
         d="m 1129.74,467.5 v 4 h -1 v -4 z m 0,7 v 4 h -1 v -4 z m 0,7 v 4 h -1 v -4 z m 0,7 v 4 h -1 v -4 z m 0,7 v 4 h -1 v -4 z m 0,7 v 4 h -1 v -4 z m 0,7 v 4 h -1 v -4 z m 0,7 v 4 h -1 v -4 z m 0,7 v 4 h -1 v -4 z m 0,7 v 4 h -1 v -4 z m 0,7 v 4 h -1 v -4 z m 0,7 v 4 h -1 v -4 z m 0,7 v 4 h -1 v -4 z m 0,7 v 4 h -1 v -4 z m 0,7 v 4 h -1 v -4 z m 0,7 v 4 h -1 v -4 z m 0,7 v 4 h -1 v -4 z m 0,7 v 4 h -1 v -4 z m 0,7 v 4 h -1 v -4 z m 0,7 v 4 h -1 v -4 z m 0,7 v 0.331 c 0,0.276 -0.22,0.5 -0.5,0.5 h -3.67 v -1 h 3.67 l -0.5,0.5 V 607.5 Z m -7.17,0.831 h -4 v -1 h 4 z m -7,0 h -4 v -1 h 4 z m -7,0 h -4 v -1 h 4 z m -7,0 h -4 v -1 h 4 z m -7,0 h -4 v -1 h 4 z m -7,0 h -4 v -1 h 4 z m -7,0 h -4 v -1 h 4 z m -7,0 h -4 v -1 h 4 z m -7,0 h -4 v -1 h 4 z m -7,0 h -4 v -1 h 4 z m -7,0 h -4 v -1 h 4 z m -7,0 h -4 v -1 h 4 z m -7,0 h -4 v -1 h 4 z m -7,0 h -4 v -1 h 4 z m -7,0 h -4 v -1 h 4 z m -7,0 h -4 v -1 h 4 z m -7,0 h -4 v -1 h 4 z m -7,0 h -3.995 v -1 h 3.995 z m -6.995,0 h -4 v -1 h 4 z m -7,0 h -4 v -1 h 4 z m -7,0 h -4 v -1 h 4 z m -7,0 h -4 v -1 h 4 z m -7,0 h -4 v -1 h 4 z m -7,0 h -4 v -1 h 4 z m -7,0 h -4 v -1 h 4 z m -7,0 h -4 v -1 h 4 z m -7,0 h -4 v -1 h 4 z m -7,0 h -4 v -1 h 4 z m -7,0 h -4 v -1 h 4 z m -7,0 h -4 v -1 h 4 z m -7,0 h -4 v -1 h 4 z m -7,0 h -4 v -1 h 4 z m -7,0 h -4 v -1 h 4 z m -7,0 h -0.408 v -1 h 0.408 z m 0.925,3.5 -8,-4 8,-4 z"
         id="path31" />
      <text
         font-family="Verdana, Verdana_MSFontService, sans-serif"
         font-weight="400"
         font-size="15px"
         transform="translate(1040.18,513)"
         id="text32">identiteits</text>
      <text
         font-family="Verdana, Verdana_MSFontService, sans-serif"
         font-weight="400"
         font-size="15px"
         transform="translate(1113.18,513)"
         id="text33">-</text>
      <text
         font-family="Verdana, Verdana_MSFontService, sans-serif"
         font-weight="400"
         font-size="15px"
         transform="translate(1045.01,530)"
         id="text34">gegevens</text>
      <rect
         x="51.500099"
         y="573.5"
         width="173"
         height="66"
         stroke="#000000"
         stroke-linejoin="round"
         stroke-miterlimit="10"
         fill="#ffffb5"
         id="rect34" />
      <text
         font-family="Verdana, Verdana_MSFontService, sans-serif"
         font-weight="400"
         font-size="16px"
         transform="translate(98.072,612)"
         id="text35">Gebruiker</text>
      <path
         d="M 0.5,-4.80387e-7 0.500004,4 h -1 L -0.5,4.80387e-7 Z M 0.500007,7 l 4e-6,4 h -1 l -4e-6,-4 z m 6e-6,7 4e-6,4 h -1 l -4e-6,-4 z m 7e-6,7 4e-6,4 h -1 l -4e-6,-4 z m 7e-6,7 4e-6,4 h -1 l -4e-6,-4 z m 7e-6,7 3e-6,4 h -1 l -3e-6,-4 z m 6e-6,7 4e-6,4 h -1 l -4e-6,-4 z m 7e-6,7 4e-6,4 h -1 l -4e-6,-4 z m 7e-6,7 4e-6,4 h -1 l -4e-6,-4 z m 6e-6,7 4e-6,4 h -1 l -3e-6,-4 z m 7e-6,7 4e-6,4 h -1 l -4e-6,-4 z m 7e-6,7 4e-6,4 h -1 l -4e-6,-4 z m 7e-6,7 4e-6,4 h -1 l -4e-6,-4 z m 6e-6,7 4e-6,4 h -1 l -4e-6,-4 z m 7e-6,7 4e-6,4 h -1 l -4e-6,-4 z m 3.500006,3.273 -3.999995013,8 -4.000004987,-8 z"
         transform="matrix(1,0,0,-1,137.5,573.773)"
         id="path35" />
      <text
         font-family="Verdana, Verdana_MSFontService, sans-serif"
         font-weight="400"
         font-size="15px"
         transform="translate(146.78,523)"
         id="text36">verzoek</text>
      <path
         d="m 0,-0.5 h 4 v 1 H 0 Z m 7,0 h 4 v 1 H 7 Z m 7,0 h 4 v 1 h -4 z m 7,0 h 4 v 1 h -4 z m 7,0 h 4 v 1 h -4 z m 7,0 h 4 v 1 h -4 z m 7,0 h 4 v 1 h -4 z m 7,0 h 4 v 1 h -4 z m 7,0 h 4 v 1 h -4 z m 7,0 h 4 v 1 h -4 z m 7,0 h 4 v 1 h -4 z m 7,0 h 4 v 1 h -4 z m 7,0 h 4 v 1 h -4 z m 7,0 h 4 v 1 h -4 z m 7,0 h 4 v 1 h -4 z m 7,0 h 4 v 1 h -4 z m 7,0 h 4 v 1 h -4 z m 7,0 h 4 v 1 h -4 z m 7,0 h 4 v 1 h -4 z m 7,0 h 4 v 1 h -4 z m 7,0 h 4 v 1 h -4 z m 7,0 h 4 v 1 h -4 z m 7,0 h 4 v 1 h -4 z m 7,0 h 4 v 1 h -4 z m 7,0 h 4 v 1 h -4 z m 7,0 h 4 v 1 h -4 z m 7,0 h 4 v 1 h -4 z m 7,0 h 4 v 1 h -4 z m 7,0 h 4 v 1 h -4 z m 7,0 h 4 v 1 h -4 z m 7,0 h 4 v 1 h -4 z m 7,0 h 4 v 1 h -4 z m 7,0 h 4 v 1 h -4 z m 7,0 h 4 v 1 h -4 z m 7,0 h 4 v 1 h -4 z m 6.896,1.103675 V 4.60367 h -1 V 0.603675 Z m 0,6.999995 v 4.00003 h -1 V 7.60367 Z m 0,7.00003 v 4 h -1 v -4 z m 0,7 v 4 h -1 v -4 z m 0,7 v 4 h -1 v -4 z m 0,7 v 4 h -1 v -4 z m 0,7 v 4 h -1 v -4 z m 0,7 v 4 h -1 v -4 z m 0,7 v 4 h -1 v -4 z m 0,7 v 4 h -1 v -4 z m 0,7 v 4 h -1 v -4 z m 0,7 v 4 h -1 v -4 z m 0,7 v 4 h -1 v -4 z m 0,7 v 4 h -1 v -4 z m 0,7 v 4.0003 h -1 v -4.0003 z m 0,7.0003 v 4 h -1 v -4 z m 0,7 v 4 h -1 v -4 z m 0,7 v 4 h -1 v -4 z m 0,7 v 0.75 h -1 v -0.75 z m 3.5,-0.583 -4,8 -4,-8 z"
         transform="matrix(-1,0,0,1,711.896,267.5)"
         id="path36" />
      <path
         d="M 0,0 H 48.2655 V 611.479"
         stroke="#000000"
         stroke-linejoin="round"
         stroke-miterlimit="10"
         stroke-dasharray="4, 3"
         fill="none"
         fill-rule="evenodd"
         transform="matrix(0,-1,-1,0,1129.98,401.766)"
         id="path37" />
      <path
         d="m 519,354.5 v 4 h -1 v -4 z m 0,7 v 4 h -1 v -4 z m 0,7 v 4 h -1 v -4 z m 0,7 v 4 h -1 v -4 z m 0,7 v 4 h -1 v -4 z m 0,7 v 4 h -1 v -4 z m 3.5,4.129 -4,8 -4,-8 z"
         id="path38" />
      <path
         d="m 186,338.5 v 4 h -1 v -4 z m 0,7 v 4 h -1 v -4 z m 0,7 v 4 h -1 v -4 z m 0,7 v 4 h -1 v -4 z m 0,7 v 4 h -1 v -4 z m 0,7 v 4 h -1 v -4 z m 0,7 v 4 h -1 v -4 z m 0,7 v 4 h -1 v -4 z m 3.5,3.288 -4,8 -4,-8 z"
         id="path39" />
      <path
         d="M 7.96938e-4,-0.499999 4.00079,-0.493624 3.9992,0.506375 -7.96938e-4,0.499999 Z M 7.00079,-0.488842 11.0008,-0.482467 10.9992,0.517532 6.99919,0.511157 Z m 7.00001,0.011157 4,0.006375 -0.0016,0.999999 -4,-0.006375 z m 7,0.011157 4,0.006376 -0.0016,0.999998 -4,-0.006375 z m 7,0.011157 4,0.006376 -0.0016,0.999998 -4,-0.006375 z m 7,0.011157 3.9999,0.006376 -0.0016,0.999998 -3.9999,-0.006375 z m 6.9999,0.011157 4,0.006376 -0.0016,0.999999 -4,-0.006376 z m 7,0.011158 4,0.006375 -0.0016,0.999999 -4,-0.006376 z m 7,0.011157 4,0.006375 -0.0016,0.999999 -4,-0.006376 z m 7,0.011157 4,0.006375 -0.0016,0.999999 -4,-0.006375 z m 7,0.011157 4,0.006376 -0.0016,0.999998 -4,-0.006375 z m 7,0.011157 4,0.006376 -0.0016,0.999998 -4,-0.006375 z m 7,0.011157 4,0.006376 -0.0016,0.999999 -4,-0.006376 z m 7,0.011157 4,0.006376 -0.0016,0.999999 -4,-0.006376 z m 7,0.011158 4.0003,0.006375 -0.002,0.999999 -3.9999,-0.006376 z m 7.0003,0.011157 4,0.006375 -0.002,0.999999 -4,-0.006376 z m 7,0.011157 4,0.006375 -0.002,0.999999 -4,-0.006375 z m 7,0.011157 4,0.006375 -0.002,0.999999 -4,-0.006375 z m 7,0.011157 4,0.006376 -0.002,0.999998 -4,-0.006375 z m 7,0.011157 4,0.006376 -0.002,0.999998 -4,-0.006375 z m 7,0.011157 4,0.006376 -0.002,0.999999 -4,-0.006376 z m 7,0.011158 4,0.006375 -0.002,0.999999 -4,-0.006376 z m 4.671,-3.492561 7.994,4.012748 -8.006,3.987242 z"
         transform="matrix(-1,0,0,1,1043.17,434.5)"
         id="path40" />
      <text
         font-family="Verdana, Verdana_MSFontService, sans-serif"
         font-weight="400"
         font-size="15px"
         transform="translate(919.716,408)"
         id="text40">verifieerbare</text>
      <text
         font-family="Verdana, Verdana_MSFontService, sans-serif"
         font-weight="400"
         font-size="15px"
         transform="translate(929.463,425)"
         id="text41">verklaring</text>
    </g>
  </g>
</svg>
