<?xml version="1.0" encoding="UTF-8" standalone="no"?>
<!-- Created with Inkscape (http://www.inkscape.org/) -->

<svg
   width="325mm"
   height="130mm"
   viewBox="0 0 325 130"
   version="1.1"
   id="svg1"
   inkscape:version="1.3.2 (091e20e, 2023-11-25, custom)"
   sodipodi:docname="kernrollen.svg"
   xmlns:inkscape="http://www.inkscape.org/namespaces/inkscape"
   xmlns:sodipodi="http://sodipodi.sourceforge.net/DTD/sodipodi-0.dtd"
   xmlns="http://www.w3.org/2000/svg"
   xmlns:svg="http://www.w3.org/2000/svg">
  <sodipodi:namedview
     id="namedview1"
     pagecolor="#ffffff"
     bordercolor="#000000"
     borderopacity="0.25"
     inkscape:showpageshadow="2"
     inkscape:pageopacity="0.0"
     inkscape:pagecheckerboard="0"
     inkscape:deskcolor="#d1d1d1"
     inkscape:document-units="mm"
     inkscape:zoom="1.0449705"
     inkscape:cx="397.61888"
     inkscape:cy="561.25986"
     inkscape:window-width="3440"
     inkscape:window-height="1369"
     inkscape:window-x="1912"
     inkscape:window-y="-8"
     inkscape:window-maximized="1"
     inkscape:current-layer="layer1" />
  <defs
     id="defs1" />
  <g
     inkscape:label="Laag 1"
     inkscape:groupmode="layer"
     id="layer1">
    <g
       transform="matrix(0.26458333,0,0,0.26458333,-4.5413672,-47.175829)"
       id="g44">
      <rect
         x="381.5"
         y="392.5"
         width="172"
         height="71"
         stroke="#000000"
         stroke-linejoin="round"
         stroke-miterlimit="10"
         fill="#ffffb5"
         id="rect1" />
      <text
         font-family="Verdana, Verdana_MSFontService, sans-serif"
         font-weight="400"
         font-size="16px"
         transform="translate(440.685,434)"
         id="text1">B</text>
      <text
         font-family="Verdana, Verdana_MSFontService, sans-serif"
         font-weight="400"
         font-size="16px"
         transform="translate(451.685,434)"
         id="text2">roker</text>
      <path
         d="M 3.33384e-7,-0.5 4,-0.499997 v 1 L -3.33384e-7,0.5 Z M 7,-0.499995 l 4,2e-6 v 1 l -4,-2e-6 z m 7,4e-6 4,3e-6 v 1 l -4,-3e-6 z m 7,5e-6 4,3e-6 v 1 l -4,-3e-6 z m 7,5e-6 4,2e-6 v 1 l -4,-2e-6 z m 7,4e-6 4,3e-6 v 1 l -4,-3e-6 z m 7,5e-6 4,3e-6 v 1 l -4,-3e-6 z m 7,5e-6 4,2e-6 v 1 l -4,-2e-6 z m 7,4e-6 4,3e-6 v 1 l -4,-3e-6 z m 7,5e-6 4,3e-6 v 1 l -4,-3e-6 z m 7,5e-6 4,2e-6 v 1 l -4,-2e-6 z m 7,4e-6 4,3e-6 v 1 l -4,-3e-6 z m 7,5e-6 4,3e-6 v 1 l -4,-3e-6 z m 7,5e-6 4,2e-6 v 1 l -4,-2e-6 z m 7,4e-6 4,3e-6 v 1 l -4,-3e-6 z m 7,5e-6 4,3e-6 v 1 l -4,-3e-6 z m 7,5e-6 4,2e-6 v 1 l -4,-2e-6 z m 7,4e-6 4,3e-6 v 1 l -4,-3e-6 z m 7,5e-6 4,3e-6 v 1 l -4,-3e-6 z m 7,5e-6 4,2e-6 v 1 l -4,-2e-6 z m 7,4e-6 4,3e-6 v 1 l -4,-3e-6 z m 7,5e-6 3.79,3e-6 V 0.5001 l -3.79,-2e-6 z m 2.456,-3.499998 8,4.000004987 -8,3.999995013 z"
         transform="matrix(-1,0,0,1,381.956,428.5)"
         id="path2" />
      <text
         font-family="Verdana, Verdana_MSFontService, sans-serif"
         font-weight="400"
         font-size="15px"
         transform="translate(581.403,394)"
         id="text3">authenticatie</text>
      <text
         font-family="Verdana, Verdana_MSFontService, sans-serif"
         font-weight="400"
         font-size="15px"
         transform="translate(677.57,394)"
         id="text4">-</text>
      <text
         font-family="Verdana, Verdana_MSFontService, sans-serif"
         font-weight="400"
         font-size="15px"
         transform="translate(595.817,411)"
         id="text5">verklaring</text>
      <path
         d="m 710.956,429.274 -4,-0.007 10e-4,-1 4,0.007 z m -7,-0.012 -4,-0.007 10e-4,-1 4,0.007 z m -7,-0.012 -4,-0.007 10e-4,-1 4,0.007 z m -7,-0.012 -4,-0.007 10e-4,-1 4,0.007 z m -7,-0.012 -4,-0.007 10e-4,-1 4,0.007 z m -7,-0.013 -4,-0.007 10e-4,-1 4,0.007 z m -7,-0.012 -4,-0.007 10e-4,-1 4,0.007 z m -7,-0.012 -4,-0.007 10e-4,-1 4,0.007 z m -7,-0.012 -4,-0.007 10e-4,-1 4,0.007 z m -7,-0.012 -4,-0.007 10e-4,-1 4,0.007 z m -7,-0.013 -4,-0.007 10e-4,-1 4,0.007 z m -7,-0.012 -4,-0.007 10e-4,-1 4,0.007 z m -7,-0.012 -4,-0.007 10e-4,-1 4,0.007 z m -7,-0.012 -4,-0.007 10e-4,-1 4,0.007 z m -7,-0.012 -4,-0.007 10e-4,-1 4,0.007 z m -7,-0.013 -4,-0.007 10e-4,-1 4,0.007 z m -7,-0.012 -4,-0.007 10e-4,-1 4,0.007 z m -7,-0.012 -4,-0.007 10e-4,-1 4,0.007 z m -7,-0.012 -4,-0.007 10e-4,-1 4,0.007 z m -7,-0.012 -4,-0.007 0.002,-1 3.999,0.007 z m -7,-0.013 -4,-0.007 0.002,-1 4,0.007 z m -7,-0.012 -3.79,-0.006 10e-4,-1 3.791,0.006 z m -2.463,3.496 -7.993,-4.014 8.007,-3.986 z"
         id="path5" />
      <text
         font-family="Verdana, Verdana_MSFontService, sans-serif"
         font-weight="400"
         font-size="15px"
         transform="translate(253.856,393)"
         id="text6">authenticatie</text>
      <text
         font-family="Verdana, Verdana_MSFontService, sans-serif"
         font-weight="400"
         font-size="15px"
         transform="translate(350.022,393)"
         id="text7">-</text>
      <text
         font-family="Verdana, Verdana_MSFontService, sans-serif"
         font-weight="400"
         font-size="15px"
         transform="translate(268.269,410)"
         id="text8">verklaring</text>
      <text
         font-family="Verdana, Verdana_MSFontService, sans-serif"
         font-weight="400"
         font-size="15px"
         transform="translate(879.435,309)"
         id="text9">verifieerbare verklaring</text>
      <rect
         x="711.5"
         y="392.5"
         width="172"
         height="71"
         stroke="#000000"
         stroke-linejoin="round"
         stroke-miterlimit="10"
         fill="#ffffb5"
         id="rect9" />
      <text
         font-family="Verdana, Verdana_MSFontService, sans-serif"
         font-weight="400"
         font-size="16px"
         transform="translate(740.345,425)"
         id="text10">Authenticatie</text>
      <text
         font-family="Verdana, Verdana_MSFontService, sans-serif"
         font-weight="400"
         font-size="16px"
         transform="translate(846.432,425)"
         id="text11">-</text>
      <text
         font-family="Verdana, Verdana_MSFontService, sans-serif"
         font-weight="400"
         font-size="16px"
         transform="translate(772.725,444)"
         id="text12">dienst</text>
      <rect
         x="712.5"
         y="579.5"
         width="172"
         height="71"
         stroke="#000000"
         stroke-linejoin="round"
         stroke-miterlimit="10"
         fill="#ffffb5"
         id="rect12" />
      <text
         font-family="Verdana, Verdana_MSFontService, sans-serif"
         font-weight="400"
         font-size="16px"
         transform="translate(758.806,611)"
         id="text13">M</text>
      <text
         font-family="Verdana, Verdana_MSFontService, sans-serif"
         font-weight="400"
         font-size="16px"
         transform="translate(772.306,611)"
         id="text14">iddelen</text>
      <text
         font-family="Verdana, Verdana_MSFontService, sans-serif"
         font-weight="400"
         font-size="16px"
         transform="translate(830.139,611)"
         id="text15">-</text>
      <text
         font-family="Verdana, Verdana_MSFontService, sans-serif"
         font-weight="400"
         font-size="16px"
         transform="translate(765.126,630)"
         id="text16">uitgever</text>
      <path
         d="m 798.084,579.061 -0.037,-4 1,-0.009 0.037,4 z m -0.066,-7 -0.037,-3.999 1,-0.01 0.037,4 z m -0.065,-6.999 -0.038,-4 1,-0.009 0.038,3.999 z m -0.066,-7 -0.037,-4 1,-0.009 0.037,4 z m -0.066,-7 -0.037,-3.999 1,-0.01 0.037,4 z m -0.065,-6.999 -0.038,-4 1,-0.01 0.038,4 z m -0.066,-7 -0.037,-4 1,-0.009 0.037,4 z m -0.066,-7 -0.037,-4 1,-0.009 0.037,4 z m -0.065,-6.999 -0.038,-4 1,-0.01 0.038,4 z m -0.066,-7 -0.037,-4 1,-0.009 0.037,4 z m -0.066,-7 -0.037,-4 1,-0.009 0.037,4 z m -0.065,-6.999 -0.038,-4 1,-0.01 0.038,4 z m -0.066,-7 -0.037,-4 1,-0.009 0.037,3.999 z m -0.066,-7 -0.037,-4 1,-0.009 0.037,4 z m -0.065,-7 -0.038,-3.999 1,-0.01 0.038,4 z m -0.066,-6.999 -0.036,-3.895 1,-0.009 0.036,3.894 z m -3.524,-2.529 3.925,-8.037 4.075,7.962 z"
         id="path16" />
      <text
         font-family="Verdana, Verdana_MSFontService, sans-serif"
         font-weight="400"
         font-size="15px"
         transform="translate(807.283,515)"
         id="text17">identificatie</text>
      <text
         font-family="Verdana, Verdana_MSFontService, sans-serif"
         font-weight="400"
         font-size="15px"
         transform="translate(892.45,515)"
         id="text18">-</text>
      <text
         font-family="Verdana, Verdana_MSFontService, sans-serif"
         font-weight="400"
         font-size="15px"
         transform="translate(828.53,532)"
         id="text19">middel</text>
      <rect
         x="711.5"
         y="200.5"
         width="172"
         height="71"
         stroke="#000000"
         stroke-linejoin="round"
         stroke-miterlimit="10"
         fill="#ffffb5"
         id="rect19" />
      <text
         font-family="Verdana, Verdana_MSFontService, sans-serif"
         font-weight="400"
         font-size="16px"
         transform="translate(745.805,233)"
         id="text20">M</text>
      <text
         font-family="Verdana, Verdana_MSFontService, sans-serif"
         font-weight="400"
         font-size="16px"
         transform="translate(759.305,233)"
         id="text21">achtigings</text>
      <text
         font-family="Verdana, Verdana_MSFontService, sans-serif"
         font-weight="400"
         font-size="16px"
         transform="translate(840.972,233)"
         id="text22">-</text>
      <text
         font-family="Verdana, Verdana_MSFontService, sans-serif"
         font-weight="400"
         font-size="16px"
         transform="translate(772.725,252)"
         id="text23">dienst</text>
      <text
         font-family="Verdana, Verdana_MSFontService, sans-serif"
         font-weight="400"
         font-size="15px"
         transform="translate(616.211,209)"
         id="text24">machtiging</text>
      <path
         d="m 0,-0.5 h 4 v 1 H 0 Z m 7,0 h 4 v 1 H 7 Z m 7,0 h 4 v 1 h -4 z m 7,0 h 4 v 1 h -4 z m 7,0 h 4 v 1 h -4 z m 7,0 h 4 v 1 h -4 z m 7,0 h 4 v 1 h -4 z m 7,0 h 4 v 1 h -4 z m 7,0 h 4 v 1 h -4 z m 7,0 h 4 v 1 h -4 z m 7,0 h 4 v 1 h -4 z m 7,0 h 4 v 1 h -4 z m 7,0 h 4 v 1 h -4 z m 7,0 h 4 v 1 h -4 z m 7,0 h 4 v 1 h -4 z m 7,0 h 4 v 1 h -4 z m 7,0 h 4 v 1 h -4 z m 7,0 h 4 v 1 h -4 z m 7,0 h 4 v 1 h -4 z m 7,0 h 4 v 1 h -4 z m 7,0 h 4 v 1 h -4 z m 7,0 h 4 v 1 h -4 z m 7,0 h 4 v 1 h -4 z m 7,0 h 4 v 1 h -4 z m 7,0 h 4 v 1 h -4 z m 7,0 h 4 v 1 h -4 z m 7,0 h 4 v 1 h -4 z m 7,0 h 4 v 1 h -4 z m 7,0 h 4 v 1 h -4 z m 7,0 h 4 v 1 h -4 z m 7,0 h 4 v 1 h -4 z m 7,0 h 4 v 1 h -4 z m 7,0 h 4 v 1 h -4 z m 7,0 h 4 v 1 h -4 z m 7,0 h 4 v 1 h -4 z m 7,0 h 4 v 1 h -4 z m 7,0 h 4 v 1 h -4 z m 7,0 h 4 v 1 h -4 z m 7,0 h 4 v 1 h -4 z m 7,0 h 4 v 1 h -4 z m 7,0 h 4 v 1 h -4 z m 7,0 h 4 v 1 h -4 z m 7,0 h 4 v 1 h -4 z m 7,0 h 4 v 1 h -4 z m 7,0 h 4 v 1 h -4 z m 7,0 h 4 v 1 h -4 z m 7,0 h 4 v 1 h -4 z m 7,0 h 4 v 1 h -4 z m 7,0 h 4 v 1 h -4 z m 7,0 h 4 v 1 h -4 z m 7,0 h 4 v 1 h -4 z m 7,0 h 4 v 1 h -4 z m 7,0 h 4 v 1 h -4 z m 7,0 h 4 v 1 h -4 z m 7,0 h 4 v 1 h -4 z m 7,0 h 4 v 1 h -4 z m 7,0 h 4 v 1 h -4 z m 7,0 h 4 v 1 h -4 z m 7,0 h 4 v 1 h -4 z m 7,0 h 4 v 1 h -4 z m 7,0 h 4 v 1 h -4 z m 7,0 h 4 v 1 h -4 z m 7,0 h 4 v 1 h -4 z m 7,0 h 4 v 1 h -4 z m 7,0 h 4 v 1 h -4 z m 7,0 h 4 v 1 h -4 z m 7,0 h 4 v 1 h -4 z m 7,0 h 4 v 1 h -4 z m 7,0 h 4 v 1 h -4 z m 7,0 h 4 v 1 h -4 z m 7,0 h 4 v 1 h -4 z m 7,0 h 4 v 1 h -4 z m 7,0 h 4 v 1 h -4 z m 7,0 h 4 v 1 h -4 z m 7,0 h 4 v 1 h -4 z m 7,0 h 4 v 1 h -4 z m 7,0 h 4 v 1 h -4 z m 7,0 h 4 v 1 h -4 z m 7,0 h 4 v 1 h -4 z m 7,0 h 4 v 1 h -4 z m 7,0 h 4 v 1 h -4 z m 7,0 h 4 v 1 h -4 z m 6.898,1.10147 v 4 h -1 v -4 z m 0,7 v 4.00003 h -1 V 7.60147 Z m 0,7.00003 v 4 h -1 v -4 z m 0,7 v 4 h -1 v -4 z m 0,7 v 4 h -1 v -4 z m 0,7 v 4 h -1 v -4 z m 0,7 v 4 h -1 v -4 z m 0,7 v 4 h -1 v -4 z m 0,7 v 4 h -1 v -4 z m 0,7 v 4 h -1 v -4 z m 0,7 v 4 h -1 v -4 z m 0,7 v 4 h -1 v -4 z m 0,7 v 4 h -1 v -4 z m 0,7 v 4 h -1 v -4 z m 0,7 v 3.9995 h -1 v -3.9995 z m 0,6.9995 v 4 h -1 v -4 z m 0,7 v 4 h -1 v -4 z m 0,7 v 4 h -1 v -4 z m 0,7 v 4 h -1 v -4 z m 0,7 v 4 h -1 v -4 z m 0,7 v 4 h -1 v -4 z m 0,7 v 4 h -1 v -4 z m 0,7 v 4 h -1 v -4 z m 0,7 v 1.508 h -1 v -1.508 z m 3.5,0.175 -4,8 -4,-8 z"
         transform="matrix(-1,0,0,1,710.899,222.5)"
         id="path24" />
      <path
         d="M 0,0 H 68.672 V 944.001"
         stroke="#000000"
         stroke-linejoin="round"
         stroke-miterlimit="10"
         stroke-dasharray="4, 3"
         fill="none"
         fill-rule="evenodd"
         transform="matrix(0,-1,-1,0,1129.5,396.172)"
         id="path25" />
      <text
         font-family="Verdana, Verdana_MSFontService, sans-serif"
         font-weight="400"
         font-size="15px"
         transform="translate(253.427,449)"
         id="text25">bevoegdheids</text>
      <text
         font-family="Verdana, Verdana_MSFontService, sans-serif"
         font-weight="400"
         font-size="15px"
         transform="translate(354.594,449)"
         id="text26">-</text>
      <text
         font-family="Verdana, Verdana_MSFontService, sans-serif"
         font-weight="400"
         font-size="15px"
         transform="translate(270.34,466)"
         id="text27">verklaring</text>
      <path
         d="m 1129.74,463.5 v 4 h -1 v -4 z m 0,7 v 4 h -1 v -4 z m 0,7 v 4 h -1 v -4 z m 0,7 v 4 h -1 v -4 z m 0,7 v 4 h -1 v -4 z m 0,7 v 4 h -1 v -4 z m 0,7 v 4 h -1 v -4 z m 0,7 v 4 h -1 v -4 z m 0,7 v 4 h -1 v -4 z m 0,7 v 4 h -1 v -4 z m 0,7 v 4 h -1 v -4 z m 0,7 v 4 h -1 v -4 z m 0,7 v 4 h -1 v -4 z m 0,7 v 4 h -1 v -4 z m 0,7 v 4 h -1 v -4 z m 0,7 v 4 h -1 v -4 z m 0,7 v 4 h -1 v -4 z m 0,7 v 4 h -1 v -4 z m 0,7 v 4 h -1 v -4 z m 0,7 v 4 h -1 v -4 z m 0,7 v 4 h -1 v -4 z m 0,7 v 4 h -1 v -4 z m -3.24,4.756 h -4 v -1 h 4 z m -7,0 h -4 v -1 h 4 z m -7,0 h -4 v -1 h 4 z m -7,0 h -4 v -1 h 4 z m -7,0 h -4 v -1 h 4 z m -7,0 h -4 v -1 h 4 z m -7,0 h -4 v -1 h 4 z m -7,0 h -4 v -1 h 4 z m -7,0 h -4 v -1 h 4 z m -7,0 h -4 v -1 h 4 z m -7,0 h -4 v -1 h 4 z m -7,0 h -4 v -1 h 4 z m -7,0 h -4 v -1 h 4 z m -7,0 h -4 v -1 h 4 z m -7,0 h -4 v -1 h 4 z m -7,0 h -4 v -1 h 4 z m -7,0 h -4 v -1 h 4 z m -7,0 h -4 v -1 h 4 z m -7,0 h -4.001 v -1 h 4.001 z m -7.001,0 h -4 v -1 h 4 z m -7,0 h -4 v -1 h 4 z m -7,0 h -4 v -1 h 4 z m -7,0 h -4 v -1 h 4 z m -7,0 h -4 v -1 h 4 z m -7,0 h -4 v -1 h 4 z m -7,0 h -4 v -1 h 4 z m -7,0 h -4 v -1 h 4 z m -7,0 h -4 v -1 h 4 z m -7,0 h -4 v -1 h 4 z m -7,0 h -4 v -1 h 4 z m -7,0 h -4 v -1 h 4 z m -7,0 h -4 v -1 h 4 z m -7,0 h -4 v -1 h 4 z m -7,0 h -4 v -1 h 4 z m -2.999,3.5 -8,-4 8,-4 z"
         id="path27" />
      <text
         font-family="Verdana, Verdana_MSFontService, sans-serif"
         font-weight="400"
         font-size="15px"
         transform="translate(1040.18,511)"
         id="text28">identiteits</text>
      <text
         font-family="Verdana, Verdana_MSFontService, sans-serif"
         font-weight="400"
         font-size="15px"
         transform="translate(1113.18,511)"
         id="text29">-</text>
      <text
         font-family="Verdana, Verdana_MSFontService, sans-serif"
         font-weight="400"
         font-size="15px"
         transform="translate(1045.01,528)"
         id="text30">gegevens</text>
      <rect
         x="51.500099"
         y="577.5"
         width="173"
         height="71"
         stroke="#000000"
         stroke-linejoin="round"
         stroke-miterlimit="10"
         fill="#ffffb5"
         id="rect30" />
      <text
         font-family="Verdana, Verdana_MSFontService, sans-serif"
         font-weight="400"
         font-size="16px"
         transform="translate(98.072,619)"
         id="text31">Gebruiker</text>
      <path
         d="M 0.5,-4.6011e-7 0.500004,4 h -1 L -0.5,4.6011e-7 Z M 0.500006,7 l 4e-6,4 h -1 l -4e-6,-4 z m 7e-6,7 4e-6,4 h -1 l -4e-6,-4 z m 6e-6,7 4e-6,4 h -1 l -4e-6,-4 z m 7e-6,7 3e-6,4 h -1 l -3e-6,-4 z m 6e-6,7 4e-6,4 h -1 l -4e-6,-4 z m 7e-6,7 3e-6,4 h -1 l -3e-6,-4 z m 6e-6,7 4e-6,4 h -1 l -4e-6,-4 z m 6e-6,7 4e-6,4 h -1 l -3e-6,-4 z m 7e-6,7 4e-6,4 h -1 l -4e-6,-4 z m 6e-6,7 4e-6,4 h -1 l -4e-6,-4 z m 7e-6,7 4e-6,4 h -1 l -4e-6,-4 z m 6e-6,7 4e-6,4 h -1 l -4e-6,-4 z m 7e-6,7 3e-6,4 h -1 l -3e-6,-4 z m 6e-6,7 4e-6,4 h -1 l -4e-6,-4 z m 7e-6,7 2e-6,2.422 h -1 l -2e-6,-2.422 z m 3.500003,1.089 -3.999995013,8 -4.000004987,-8 z"
         transform="matrix(1,0,0,-1,137.5,577.589)"
         id="path31" />
      <text
         font-family="Verdana, Verdana_MSFontService, sans-serif"
         font-weight="400"
         font-size="15px"
         transform="translate(70.7105,524)"
         id="text32">verzoek</text>
      <path
         d="m 0,-0.5 h 4 v 1 H 0 Z m 7,0 h 4 v 1 H 7 Z m 7,0 h 4 v 1 h -4 z m 7,0 h 4 v 1 h -4 z m 7,0 h 4 v 1 h -4 z m 7,0 h 4 v 1 h -4 z m 7,0 h 4 v 1 h -4 z m 7,0 h 4 v 1 h -4 z m 7,0 h 4 v 1 h -4 z m 7,0 h 4 v 1 h -4 z m 7,0 h 4 v 1 h -4 z m 7,0 h 4 v 1 h -4 z m 7,0 h 4 v 1 h -4 z m 7,0 h 4 v 1 h -4 z m 7,0 h 4 v 1 h -4 z m 7,0 h 4 v 1 h -4 z m 7,0 h 4 v 1 h -4 z m 7,0 h 4 v 1 h -4 z m 7,0 h 4 v 1 h -4 z m 7,0 h 4 v 1 h -4 z m 7,0 h 4 v 1 h -4 z m 7,0 h 4 v 1 h -4 z m 7,0 h 4 v 1 h -4 z m 7,0 h 4 v 1 h -4 z m 7,0 h 4 v 1 h -4 z m 7,0 h 4 v 1 h -4 z m 7,0 h 4 v 1 h -4 z m 7,0 h 4 v 1 h -4 z m 7,0 h 4 v 1 h -4 z m 7,0 h 4 v 1 h -4 z m 7,0 h 4 v 1 h -4 z m 7,0 h 4 v 1 h -4 z m 7,0 h 4 v 1 h -4 z m 7,0 h 4 v 1 h -4 z m 7,0 h 4 v 1 h -4 z m 6.897,1.103465 V 4.60346 h -1 V 0.603465 Z m 0,6.999995 v 4.00004 h -1 V 7.60346 Z m 0,7.00004 v 4 h -1 v -4 z m 0,7 v 4 h -1 v -4 z m 0,7 v 4 h -1 v -4 z m 0,7 v 4 h -1 v -4 z m 0,7 v 4 h -1 v -4 z m 0,7 v 4 h -1 v -4 z m 0,7 v 4 h -1 v -4 z m 0,7 v 4 h -1 v -4 z m 0,7 v 4 h -1 v -4 z m 0,7 v 4 h -1 v -4 z m 0,7 v 4 h -1 v -4 z m 0,7 v 4 h -1 v -4 z m 0,7 v 3.9995 h -1 v -3.9995 z m 0,6.9995 v 4 h -1 v -4 z m 0,7 v 4 h -1 v -4 z m 0,7 v 4 h -1 v -4 z m 0,7 v 4 h -1 v -4 z m 0,7 v 4 h -1 v -4 z m 3.5,2.851 -4,8 -4,-8 z"
         transform="matrix(-1,0,0,1,711.897,248.5)"
         id="path32" />
      <path
         d="M 0,0 H 52.023 V 611.479"
         stroke="#000000"
         stroke-linejoin="round"
         stroke-miterlimit="10"
         stroke-dasharray="4, 3"
         fill="none"
         fill-rule="evenodd"
         transform="matrix(0,-1,-1,0,1115.98,392.523)"
         id="path33" />
      <path
         d="m 505,341.5 v 4 h -1 v -4 z m 0,7 v 4 h -1 v -4 z m 0,7 v 4 h -1 v -4 z m 0,7 v 4 h -1 v -4 z m 0,7 v 4 h -1 v -4 z m 0,7 v 4 h -1 v -4 z m 0,7 v 2.131 h -1 V 383.5 Z m 3.5,0.797 -4,8 -4,-8 z"
         id="path34" />
      <path
         d="m 186,327.5 v 4 h -1 v -4 z m 0,7 v 4 h -1 v -4 z m 0,7 v 4 h -1 v -4 z m 0,7 v 4 h -1 v -4 z m 0,7 v 4 h -1 v -4 z m 0,7 v 4 h -1 v -4 z m 0,7 v 4 h -1 v -4 z m 0,7 v 4 h -1 v -4 z m 0,7 v 2.315 h -1 V 383.5 Z m 3.5,0.981 -4,8 -4,-8 z"
         id="path35" />
      <path
         d="M 8.59076e-4,-0.499999 4.00085,-0.493127 3.99914,0.506872 -8.59076e-4,0.499999 Z M 7.00085,-0.487972 11.0008,-0.4811 10.9991,0.518899 6.99913,0.512026 Z m 6.99995,0.012027 4,0.006872 -0.0017,0.999999 -4,-0.006873 z m 7,0.012027 4,0.006873 -0.0017,0.999998 -4,-0.006873 z m 7,0.012027 4,0.006873 -0.0017,0.999998 -4,-0.006872 z m 7,0.012027 4,0.006873 -0.0017,0.999998 -4,-0.006872 z m 7,0.012027 4,0.006873 -0.0017,0.999998 -4,-0.006872 z m 7,0.012027 4,0.006873 -0.0017,0.999998 -4,-0.006872 z m 7,0.012027 4,0.006873 -0.0017,0.999998 -4,-0.006872 z m 7,0.012027 4,0.006873 -0.0018,0.999998 -4,-0.006872 z m 7,0.012027 3.9999,0.006873 -0.0017,0.999998 -4,-0.006872 z m 6.9999,0.012027 4,0.006873 -0.0017,0.999999 -4,-0.006873 z m 7,0.012027 4,0.006873 -0.0017,0.999999 -4,-0.006873 z m 7,0.012028 4,0.006872 -0.0017,0.999999 -4,-0.006873 z m 7,0.012027 4.0003,0.006872 -0.002,0.999999 -4,-0.006873 z m 7.0003,0.012027 4,0.006872 -0.002,0.999999 -4,-0.006873 z m 7,0.012027 4,0.006872 -0.002,0.999999 -4,-0.006873 z m 7,0.012027 4,0.006872 -0.002,0.999999 -4,-0.006873 z m 7,0.012027 4,0.006872 -0.002,0.999999 -4,-0.006873 z m 7,0.012027 4,0.006873 -0.002,0.999998 -4,-0.006873 z m 7,0.012027 4,0.006873 -0.002,0.999998 -4,-0.006872 z m 7,0.012027 4,0.006873 -0.002,0.999998 -4,-0.006872 z m 4.672,-3.491979 7.993,4.013741 -8.007,3.986249 z"
         transform="matrix(-1,0,0,1,1043.17,428.5)"
         id="path36" />
      <text
         font-family="Verdana, Verdana_MSFontService, sans-serif"
         font-weight="400"
         font-size="15px"
         transform="translate(919.716,398)"
         id="text36">verifieerbare</text>
      <text
         font-family="Verdana, Verdana_MSFontService, sans-serif"
         font-weight="400"
         font-size="15px"
         transform="translate(929.463,415)"
         id="text37">verklaring</text>
      <path
         d="m 0,0.5 h -4 v -1 h 4 z m -7,0 h -4 v -1 h 4 z m -7,0 h -4 v -1 h 4 z m -7,0 h -4 v -1 h 4 z m -7,0 h -4 v -1 h 4 z m -7,0 h -4 v -1 h 4 z m -7,0 h -4 v -1 h 4 z m -5.1198,0.88016 v 4 h -1 v -4 z m 0,7 v 4.00004 h -1 V 8.38016 Z m 0,7.00004 v 4 h -1 v -4 z m 0,7 v 4 h -1 v -4 z m 0,7 v 4 h -1 v -4 z m 0,7 v 4 h -1 v -4 z m 0,7 v 4 h -1 v -4 z m 0,7 v 4 h -1 v -4 z m 0,7 v 4 h -1 v -4 z m 0,7 v 4 h -1 v -4 z m 0,7 v 4 h -1 v -4 z m 0,7 v 4 h -1 v -4 z m 0,7 v 4 h -1 v -4 z m 0,7 v 4 h -1 v -4 z m 0,7 v 3.9998 h -1 v -3.9998 z m 0,6.9998 v 4 h -1 v -4 z m 0,7 v 4 h -1 v -4 z m 0,7 v 4 h -1 v -4 z m 0,7 v 4 h -1 v -4 z m 0,7 v 4 h -1 v -4 z m 0,7 v 4 h -1 v -4 z m 0,7 v 4 h -1 v -4 z m 0,7 v 4 h -1 v -4 z m 0,7 v 4 h -1 v -4 z m 0,7 v 4 h -1 v -4 z m 0,7 v 4 h -1 v -4 z m 0,7 v 4 h -1 v -4 z m 0,7 v 4 h -1 v -4 z m 0,7 v 4 h -1 v -4 z m 0,7 v 4 h -1 v -4 z m 0,7 v 4 h -1 v -4 z m 0,7 v 4 h -1 v -4 z m 0,7 v 4 h -1 v -4 z m 0,7 v 4 h -1 v -4 z m 0,7 v 4 h -1 v -4 z m 0,7 v 4 h -1 v -4 z m 0,7 v 4 h -1 v -4 z m 0,7 v 4 h -1 v -4 z m 0,7 v 4 h -1 v -4 z m 0,7 v 4 h -1 v -4 z m 0,7 v 4 h -1 v -4 z m 0,7 v 4 h -1 v -4 z m 0,7 v 4 h -1 v -4 z m 0,7 v 4 h -1 v -4 z m 0,7 v 4 h -1 v -4 z m 0,7 v 4 h -1 v -4 z m 0,7 v 4 h -1 v -4 z m 0,7 v 4 h -1 v -4 z m 0,7 v 4 h -1 v -4 z m 0,7 v 4 h -1 v -4 z m 0,7 v 4 h -1 v -4 z m 0,7 v 4 h -1 v -4 z m 0,7 v 4 h -1 v -4 z m 0,7 v 4 h -1 v -4 z m 0,7 v 4 h -1 v -4 z m 0,7 v 4 h -1 v -4 z m 0,7 v 4 h -1 v -4 z m 0,7 v 4 h -1 v -4 z m 0,7 v 4 h -1 v -4 z m 0,7 v 4 h -1 v -4 z m 0,7 v 4 h -1 v -4 z m 0,7 v 4 h -1 v -4 z m 0,7 v 4 h -1 v -4 z m 0,7 v 4 h -1 v -4 z m 0,7 v 4 h -1 v -4 z m 0,7 v 4 h -1 v -4 z m 0,7 v 4 h -1 v -4 z m 0,7 v 4 h -1 v -4 z m 0,7 v 4 h -1 v -4 z m 0,7 v 4 h -1 v -4 z m 0,7 v 4 h -1 v -4 z m 0,7 v 4 h -1 v -4 z m 0,7 v 4 h -1 v -4 z m 0,7 v 4 h -1 v -4 z m 0,7 v 4 h -1 v -4 z m 0,7 v 4 h -1 v -4 z m 0,7 v 4 h -1 v -4 z m 0,7 v 4 h -1 v -4 z m 0,7 v 4 h -1 v -4 z m 0,7 v 4 h -1 v -4 z m 0,7 v 4 h -1 v -4 z m 0,7 v 4 h -1 v -4 z m 0,7 v 4 h -1 v -4 z m 0,7 v 4 h -1 v -4 z m 0,7 v 4 h -1 v -4 z m 0,7 v 4 h -1 v -4 z m 0,7 v 4 h -1 v -4 z m 0,7 v 4 h -1 v -4 z m 0,7 v 4 h -1 v -4 z m 0,7 v 4 h -1 v -4 z m 0,7 v 4 h -1 v -4 z m 0.5808,5.419 h 4 v 1 h -4 z m 7,0 h 4 v 1 h -4 z m 7,0 h 4 v 1 h -4 z m 7,0 h 4 v 1 h -4 z m 7,0 h 4 v 1 h -4 z m 7,0 h 4 v 1 h -4 z m 3.81323,-3.5 7.999996,4 -7.999996,4 z"
         transform="matrix(0,-1,-1,0,786.799,463.774)"
         id="path37" />
      <text
         font-family="Verdana, Verdana_MSFontService, sans-serif"
         font-weight="400"
         font-size="15px"
         transform="translate(586.453,477)"
         id="text38">authenticatie</text>
      <text
         font-family="Verdana, Verdana_MSFontService, sans-serif"
         font-weight="400"
         font-size="15px"
         transform="translate(682.62,477)"
         id="text39">-</text>
      <text
         font-family="Verdana, Verdana_MSFontService, sans-serif"
         font-weight="400"
         font-size="15px"
         transform="translate(600.866,494)"
         id="text40">verklaring</text>
      <rect
         x="51.500099"
         y="392.5"
         width="173"
         height="71"
         stroke="#000000"
         stroke-linejoin="round"
         stroke-miterlimit="10"
         fill="#ffffb5"
         id="rect40" />
      <text
         font-family="Verdana, Verdana_MSFontService, sans-serif"
         font-weight="400"
         font-size="16px"
         transform="translate(78.9819,434)"
         id="text41">D</text>
      <text
         font-family="Verdana, Verdana_MSFontService, sans-serif"
         font-weight="400"
         font-size="16px"
         transform="translate(91.3153,434)"
         id="text42">ienstverlener</text>
      <rect
         x="1043.5"
         y="392.5"
         width="172"
         height="71"
         stroke="#000000"
         stroke-linejoin="round"
         stroke-miterlimit="10"
         fill="#ffffb5"
         id="rect42" />
      <text
         font-family="Verdana, Verdana_MSFontService, sans-serif"
         font-weight="400"
         font-size="16px"
         transform="translate(1071.19,424)"
         id="text43">Aanbieder van</text>
      <text
         font-family="Verdana, Verdana_MSFontService, sans-serif"
         font-weight="400"
         font-size="16px"
         transform="translate(1051.11,443)"
         id="text44">identiteitsgegevens</text>
    </g>
  </g>
</svg>
