<?xml version="1.0" encoding="UTF-8" standalone="no"?>
<!-- Created with Inkscape (http://www.inkscape.org/) -->

<svg
   width="322mm"
   height="123mm"
   viewBox="0 0 322 123"
   version="1.1"
   id="svg1"
   inkscape:version="1.3.2 (091e20e, 2023-11-25, custom)"
   sodipodi:docname="streefbeeld.svg"
   xmlns:inkscape="http://www.inkscape.org/namespaces/inkscape"
   xmlns:sodipodi="http://sodipodi.sourceforge.net/DTD/sodipodi-0.dtd"
   xmlns="http://www.w3.org/2000/svg"
   xmlns:svg="http://www.w3.org/2000/svg">
  <sodipodi:namedview
     id="namedview1"
     pagecolor="#ffffff"
     bordercolor="#000000"
     borderopacity="0.25"
     inkscape:showpageshadow="2"
     inkscape:pageopacity="0.0"
     inkscape:pagecheckerboard="0"
     inkscape:deskcolor="#d1d1d1"
     inkscape:document-units="mm"
     inkscape:zoom="1.0449705"
     inkscape:cx="396.66192"
     inkscape:cy="561.25986"
     inkscape:window-width="3440"
     inkscape:window-height="1369"
     inkscape:window-x="1912"
     inkscape:window-y="-8"
     inkscape:window-maximized="1"
     inkscape:current-layer="layer1" />
  <defs
     id="defs1" />
  <g
     inkscape:label="Laag 1"
     inkscape:groupmode="layer"
     id="layer1">
    <g
       transform="matrix(0.26458333,0,0,0.26458333,-9.3649896,-44.628283)"
       id="g48">
      <rect
         x="70.500099"
         y="401.5"
         width="175"
         height="60"
         stroke="#000000"
         stroke-linejoin="round"
         stroke-miterlimit="10"
         fill="#b5ffff"
         id="rect1" />
      <text
         font-family="Verdana, Verdana_MSFontService, sans-serif"
         font-weight="400"
         font-size="16px"
         transform="translate(118.624,427)"
         id="text1">D</text>
      <text
         font-family="Verdana, Verdana_MSFontService, sans-serif"
         font-weight="400"
         font-size="16px"
         transform="translate(130.957,427)"
         id="text2">iensten</text>
      <text
         font-family="Verdana, Verdana_MSFontService, sans-serif"
         font-weight="400"
         font-size="16px"
         transform="translate(189.29,427)"
         id="text3">-</text>
      <text
         font-family="Verdana, Verdana_MSFontService, sans-serif"
         font-weight="400"
         font-size="16px"
         transform="translate(119.377,446)"
         id="text4">catalogus</text>
      <rect
         x="734.5"
         y="401.5"
         width="176"
         height="60"
         stroke="#000000"
         stroke-linejoin="round"
         stroke-miterlimit="10"
         fill="#ffffb5"
         id="rect4" />
      <text
         font-family="Verdana, Verdana_MSFontService, sans-serif"
         font-weight="400"
         font-size="16px"
         transform="translate(795.247,437)"
         id="text5">B</text>
      <text
         font-family="Verdana, Verdana_MSFontService, sans-serif"
         font-weight="400"
         font-size="16px"
         transform="translate(806.247,437)"
         id="text6">roker</text>
      <rect
         x="401.5"
         y="560.5"
         width="175"
         height="60"
         stroke="#000000"
         stroke-linejoin="round"
         stroke-miterlimit="10"
         fill="#b5ffff"
         id="rect6" />
      <text
         font-family="Verdana, Verdana_MSFontService, sans-serif"
         font-weight="400"
         font-size="16px"
         transform="translate(430.421,596)"
         id="text7">I</text>
      <text
         font-family="Verdana, Verdana_MSFontService, sans-serif"
         font-weight="400"
         font-size="16px"
         transform="translate(437.088,596)"
         id="text8">nzageregister</text>
      <path
         d="M 0.00232426,-0.499995 4.00228,-0.481401 3.99763,0.518589 -0.00232426,0.499995 Z m 6.99992574,0.03254 3.99995,0.018594 -0.0046,0.999989 -4,-0.018594 z m 6.99995,0.03254 3.9999,0.018594 -0.0046,0.999989 -4,-0.018594 z m 6.9999,0.032539 4,0.018594 -0.0047,0.999989 -4,-0.018594 z m 6.9999,0.03254 4,0.018594 -0.0047,0.999989 -3.9999,-0.018594 z m 6.9999,0.032539 4,0.018594 -0.0046,0.99999 -4,-0.018594 z m 7,0.03254 3.9999,0.018594 -0.0046,0.999989 -4,-0.018594 z m 6.9999,0.03254 4,0.018594 -0.0047,0.999989 -4,-0.018594 z m 6.9999,0.032539 4,0.018594 -0.0047,0.999989 -3.9999,-0.018594 z m 6.9999,0.03254 4,0.018594 -0.0047,0.999989 -3.9999,-0.018594 z m 7,0.032539 3.9999,0.018594 -0.0046,0.99999 -4,-0.018594 z m 6.9999,0.03254 3.9999,0.018594 -0.0046,0.999989 -4,-0.018594 z m 6.9999,0.03254 4,0.0185936 L 87.9967,0.909064 83.9968,0.89047 Z m 6.9999,0.0325391 4,0.0185941 -0.0047,0.9999888 -3.9999,-0.018594 z m 7,0.0325396 3.9997,0.018594 -0.004,0.9999893 -4.0004,-0.018594 z m 6.9997,0.0325396 4,0.01859402 -0.005,0.99998668 -3.999,-0.018592 z m 7,0.0325395 4,0.0185941 -0.005,0.9999871 -4,-0.01859 z m 7,0.0325396 4,0.0185941 -0.005,0.9999875 -4,-0.01859 z m 7,0.0325396 4,0.018594 -0.005,0.999988 -4,-0.01859 z m 7,0.03254 4,0.018594 -0.005,0.999988 -4,-0.01859 z m 7,0.032539 4,0.018594 -0.005,0.999989 -4,-0.01859 z m 7,0.03254 3.751,0.017436 -0.005,0.999987 -3.751,-0.01743 z m 2.434,-3.488727 7.981,4.037149 -8.018,3.962771 z"
         transform="matrix(1,0,0,-1,910.5,431.232)"
         id="path8" />
      <text
         font-family="Verdana, Verdana_MSFontService, sans-serif"
         font-weight="400"
         font-size="15px"
         transform="translate(933.58,400)"
         id="text9">authenticatie</text>
      <text
         font-family="Verdana, Verdana_MSFontService, sans-serif"
         font-weight="400"
         font-size="15px"
         transform="translate(1029.75,400)"
         id="text10">-</text>
      <text
         font-family="Verdana, Verdana_MSFontService, sans-serif"
         font-weight="400"
         font-size="15px"
         transform="translate(948,417)"
         id="text11">verklaring</text>
      <path
         d="m 576.5,431 h 4 v 1 h -4 z m 7,0 h 4 v 1 h -4 z m 7,0 h 4 v 1 h -4 z m 7,0 h 4 v 1 h -4 z m 7,0 h 4 v 1 h -4 z m 7,0 h 4 v 1 h -4 z m 7,0 h 4 v 1 h -4 z m 7,0 h 4 v 1 h -4 z m 7,0 h 4 v 1 h -4 z m 7,0 h 4 v 1 h -4 z m 7,0 h 4 v 1 h -4 z m 7,0 h 4 v 1 h -4 z m 7,0 h 4 v 1 h -4 z m 7,0 h 4 v 1 h -4 z m 7,0 h 4 v 1 h -4 z m 7,0 h 4 v 1 h -4 z m 7,0 h 4 v 1 h -4 z m 7,0 h 4 v 1 h -4 z m 7,0 h 4 v 1 h -4 z m 7,0 h 4 v 1 h -4 z m 7,0 h 4 v 1 h -4 z m 7,0 h 4 v 1 h -4 z m 2.968,-3.5 8,4 -8,4 z"
         id="path11" />
      <text
         font-family="Verdana, Verdana_MSFontService, sans-serif"
         font-weight="400"
         font-size="15px"
         transform="translate(621.203,400)"
         id="text12">authenticatie</text>
      <text
         font-family="Verdana, Verdana_MSFontService, sans-serif"
         font-weight="400"
         font-size="15px"
         transform="translate(717.369,400)"
         id="text13">-</text>
      <text
         font-family="Verdana, Verdana_MSFontService, sans-serif"
         font-weight="400"
         font-size="15px"
         transform="translate(635.623,417)"
         id="text14">verklaring</text>
      <path
         d="m 245.5,431 h 4 v 1 h -4 z m 7,0 h 4 v 1 h -4 z m 7,0 h 4 v 1 h -4 z m 7,0 h 4 v 1 h -4 z m 7,0 h 4 v 1 h -4 z m 7,0 h 4 v 1 h -4 z m 7,0 h 4 v 1 h -4 z m 7,0 h 4 v 1 h -4 z m 7,0 h 4 v 1 h -4 z m 7,0 h 4 v 1 h -4 z m 7,0 h 4 v 1 h -4 z m 7,0 h 4 v 1 h -4 z m 7,0 h 4 v 1 h -4 z m 7,0 h 4 v 1 h -4 z m 7,0 h 4 v 1 h -4 z m 7,0 h 4 v 1 h -4 z m 7,0 h 4 v 1 h -4 z m 7,0 h 4 v 1 h -4 z m 7,0 h 4 v 1 h -4 z m 7,0 h 4 v 1 h -4 z m 7,0 h 4 v 1 h -4 z m 7,0 h 1.683 v 1 H 392.5 Z m 0.349,-3.5 8,4 -8,4 z"
         id="path14" />
      <text
         font-family="Verdana, Verdana_MSFontService, sans-serif"
         font-weight="400"
         font-size="15px"
         transform="translate(294.861,421)"
         id="text15">dienst</text>
      <path
         d="m 489,461.5 v 4 h -1 v -4 z m 0,7 v 4 h -1 v -4 z m 0,7 v 4 h -1 v -4 z m 0,7 v 4 h -1 v -4 z m 0,7 v 4 h -1 v -4 z m 0,7 v 4 h -1 v -4 z m 0,7 v 4 h -1 v -4 z m 0,7 v 4 h -1 v -4 z m 0,7 v 4 h -1 v -4 z m 0,7 v 4 h -1 v -4 z m 0,7 v 4 h -1 v -4 z m 0,7 v 4 h -1 v -4 z m 0,7 v 4 h -1 v -4 z m 0,7 v 1.345 h -1 V 552.5 Z m 3.5,0.012 -4,8 -4,-8 z"
         id="path15" />
      <text
         font-family="Verdana, Verdana_MSFontService, sans-serif"
         font-weight="400"
         font-size="15px"
         transform="translate(502.66,494)"
         id="text16">authenticatie</text>
      <text
         font-family="Verdana, Verdana_MSFontService, sans-serif"
         font-weight="400"
         font-size="15px"
         transform="translate(598.827,494)"
         id="text17">-</text>
      <text
         font-family="Verdana, Verdana_MSFontService, sans-serif"
         font-weight="400"
         font-size="15px"
         transform="translate(513.747,511)"
         id="text18">verzoek en</text>
      <text
         font-family="Verdana, Verdana_MSFontService, sans-serif"
         font-weight="400"
         font-size="15px"
         transform="translate(521.413,529)"
         id="text19">resultaat</text>
      <rect
         x="72.500099"
         y="239.5"
         width="176"
         height="60"
         stroke="#000000"
         stroke-linejoin="round"
         stroke-miterlimit="10"
         fill="#ffffb5"
         id="rect19" />
      <text
         font-family="Verdana, Verdana_MSFontService, sans-serif"
         font-weight="400"
         font-size="16px"
         transform="translate(101.988,266)"
         id="text20">Aanbieder van</text>
      <text
         font-family="Verdana, Verdana_MSFontService, sans-serif"
         font-weight="400"
         font-size="16px"
         transform="translate(81.901,285)"
         id="text21">identiteitsgegevens</text>
      <text
         font-family="Verdana, Verdana_MSFontService, sans-serif"
         font-weight="400"
         font-size="15px"
         transform="translate(466.088,189)"
         id="text22">dienst</text>
      <text
         font-family="Verdana, Verdana_MSFontService, sans-serif"
         font-weight="400"
         font-size="15px"
         transform="translate(335.636,334)"
         id="text23">verifieerbare verklaring</text>
      <rect
         x="1067.5"
         y="400.5"
         width="175"
         height="60"
         stroke="#000000"
         stroke-linejoin="round"
         stroke-miterlimit="10"
         fill="#ffffb5"
         id="rect23" />
      <text
         font-family="Verdana, Verdana_MSFontService, sans-serif"
         font-weight="400"
         font-size="16px"
         transform="translate(1096.19,436)"
         id="text24">D</text>
      <text
         font-family="Verdana, Verdana_MSFontService, sans-serif"
         font-weight="400"
         font-size="16px"
         transform="translate(1108.52,436)"
         id="text25">ienstverlener</text>
      <path
         d="m 558.5,431 h 4 v 1 h -4 z m 7,0 h 4 v 1 h -4 z m 7,0 h 4 v 1 h -4 z m 7,0 h 4 v 1 h -4 z m 7,0 h 4 v 1 h -4 z m 7,0 h 4 v 1 h -4 z m 7,0 h 4 v 1 h -4 z m 7,0 h 4 v 1 h -4 z m 7,0 h 4 v 1 h -4 z m 7,0 h 4 v 1 h -4 z m 7,0 h 4 v 1 h -4 z m 7,0 h 4 v 1 h -4 z m 7,0 h 4 v 1 h -4 z m 7,0 h 4 v 1 h -4 z m 7,0 h 4 v 1 h -4 z m 7,0 h 4 v 1 h -4 z m 7,0 h 4 v 1 h -4 z m 7,0 h 4 v 1 h -4 z m 7,0 h 4 v 1 h -4 z m 7,0 h 0.97 c 0.276,0 0.5,0.224 0.5,0.5 v 3.03 h -1 v -3.03 l 0.5,0.5 h -0.97 z m 1.47,6.53 v 4 h -1 v -4 z m 0,7 v 4 h -1 v -4 z m 0,7 v 4 h -1 v -4 z m 0,7 v 4 h -1 v -4 z m 0,7 v 4 h -1 v -4 z m 0,7 v 4 h -1 v -4 z m 0,7 v 4 h -1 v -4 z m 0,7 v 4 h -1 v -4 z m 0,7 v 4 h -1 v -4 z m 0,7 v 4 h -1 v -4 z m 0,7 v 4 h -1 v -4 z m 0,7 v 1.135 l -0.5,-0.5 h 2.865 v 1 h -2.865 c -0.276,0 -0.5,-0.224 -0.5,-0.5 v -1.135 z m 5.365,0.635 h 4 v 1 h -4 z m 7,0 h 4 v 1 h -4 z m 7,0 h 4 v 1 h -4 z m 7,0 h 4 v 1 h -4 z m 7,0 h 4 v 1 h -4 z m 7,0 h 4 v 1 h -4 z m 7,0 h 4 v 1 h -4 z m 7,0 h 4 v 1 h -4 z m 7,0 h 4 v 1 h -4 z m 7,0 h 4 v 1 h -4 z m 7,0 h 4 v 1 h -4 z m 7,0 h 4 v 1 h -4 z m 7,0 h 4 v 1 h -4 z m 7,0 h 4 v 1 h -4 z m 7,0 h 4 v 1 h -4 z m 7,0 h 4 v 1 h -4 z m 7,0 h 4 v 1 h -4 z m 7,0 h 4 v 1 h -4 z m 7,0 h 4 v 1 h -4 z m 7,0 h 4 v 1 h -4 z m 7,0 h 4 v 1 h -4 z m 7,0 h 4 v 1 h -4 z m 7,0 h 4 v 1 h -4 z m 7,0 h 4 v 1 h -4 z m 7,0 h 4 v 1 h -4 z m 7,0 h 4 v 1 h -4 z m 7,0 h 4 v 1 h -4 z m 7,0 h 4 v 1 h -4 z m 7,0 h 4 v 1 h -4 z m 7,0 h 4 v 1 h -4 z m 7,0 h 4 v 1 h -4 z m 7,0 h 4 v 1 h -4 z m 7,0 h 4 v 1 h -4 z m 7,0 h 4 v 1 h -4 z m 7,0 h 4 v 1 h -4 z m 7,0 h 4 v 1 h -4 z m 7,0 h 4 v 1 h -4 z m 7,0 h 4 v 1 h -4 z m 7,0 h 4 v 1 h -4 z m 7,0 h 4 v 1 h -4 z m 7,0 h 4 v 1 h -4 z m 7,0 h 4 v 1 h -4 z m 7,0 h 4 v 1 h -4 z m 7,0 h 4.005 v 1 h -4.005 z m 7.005,0 h 4 v 1 h -4 z m 7,0 h 4 v 1 h -4 z m 7,0 h 4 v 1 h -4 z m 7,0 h 4 v 1 h -4 z m 7,0 h 4 v 1 h -4 z m 7,0 h 4 v 1 h -4 z m 7,0 h 4 v 1 h -4 z m 7,0 h 4 v 1 h -4 z m 7,0 h 4 v 1 h -4 z m 7,0 h 4 v 1 h -4 z m 7,0 h 4 v 1 h -4 z m 7,0 h 4 v 1 h -4 z m 7,0 h 4 v 1 h -4 z m 7,0 h 4 v 1 h -4 z m 7,0 h 4 v 1 h -4 z m 7,0 h 4 v 1 h -4 z m 7,0 h 4 v 1 h -4 z m 7,0 h 4 v 1 h -4 z m 7,0 h 4 v 1 h -4 z m 4.22,-1.779 v -4 h 1 v 4 z m 0,-7 v -4 h 1 v 4 z m 0,-7 v -4 h 1 v 4 z m 0,-7 v -4 h 1 v 4 z m 0,-7 v -4 h 1 v 4 z m 0,-7 v -4 h 1 v 4 z m 0,-7 v -3.951 h 1 v 3.951 z m -3.5,-2.618 4,-8 4,8 z"
         id="path25" />
      <rect
         x="401.5"
         y="401.5"
         width="175"
         height="60"
         stroke="#000000"
         stroke-linejoin="round"
         stroke-miterlimit="10"
         fill="#ffffb5"
         id="rect25" />
      <text
         font-family="Verdana, Verdana_MSFontService, sans-serif"
         font-weight="400"
         font-size="16px"
         transform="translate(431.711,427)"
         id="text26">Authenticatie</text>
      <text
         font-family="Verdana, Verdana_MSFontService, sans-serif"
         font-weight="400"
         font-size="16px"
         transform="translate(537.798,427)"
         id="text27">-</text>
      <text
         font-family="Verdana, Verdana_MSFontService, sans-serif"
         font-weight="400"
         font-size="16px"
         transform="translate(464.085,446)"
         id="text28">dienst</text>
      <rect
         x="70.500099"
         y="561.5"
         width="175"
         height="60"
         stroke="#000000"
         stroke-linejoin="round"
         stroke-miterlimit="10"
         fill="#ffffb5"
         id="rect28" />
      <text
         font-family="Verdana, Verdana_MSFontService, sans-serif"
         font-weight="400"
         font-size="16px"
         transform="translate(118.29,588)"
         id="text29">M</text>
      <text
         font-family="Verdana, Verdana_MSFontService, sans-serif"
         font-weight="400"
         font-size="16px"
         transform="translate(131.79,588)"
         id="text30">iddelen</text>
      <text
         font-family="Verdana, Verdana_MSFontService, sans-serif"
         font-weight="400"
         font-size="16px"
         transform="translate(189.624,588)"
         id="text31">-</text>
      <text
         font-family="Verdana, Verdana_MSFontService, sans-serif"
         font-weight="400"
         font-size="16px"
         transform="translate(124.61,607)"
         id="text32">uitgever</text>
      <path
         d="M 0.273645,-0.418471 3.62142,1.77069 3.07413,2.60763 -0.273645,0.418471 Z M 6.13224,3.41256 9.48002,5.60172 8.93273,6.43867 5.58495,4.2495 Z m 5.85856,3.83103 3.3478,2.18917 -0.5473,0.83694 -3.3477,-2.18916 z m 5.8586,3.83101 3.3478,2.1892 -0.5473,0.8369 -3.3477,-2.1891 z m 5.8586,3.8311 3.3478,2.1891 -0.5473,0.837 -3.3477,-2.1892 z m 5.8586,3.831 3.3478,2.1892 -0.5473,0.8369 -3.3477,-2.1892 z m 5.8586,3.831 3.3478,2.1892 -0.5473,0.8369 -3.3477,-2.1891 z m 5.8586,3.8311 3.3478,2.1891 -0.5473,0.837 -3.3478,-2.1892 z m 5.8586,3.831 3.3478,2.1891 -0.5473,0.837 -3.3477,-2.1892 z m 5.8586,3.831 3.3478,2.1892 -0.5473,0.8369 -3.3477,-2.1891 z m 5.8586,3.831 3.3478,2.1892 -0.5473,0.8369 -3.3478,-2.1891 z m 5.8586,3.8311 3.3478,2.1891 -0.5473,0.837 -3.3478,-2.1892 z m 5.8586,3.831 3.3478,2.1892 -0.5473,0.8369 -3.3478,-2.1891 z m 5.8586,3.831 3.3478,2.1892 -0.5473,0.8369 -3.3478,-2.1891 z m 5.8586,3.8311 3.3478,2.1891 -0.5473,0.837 -3.3478,-2.1892 z m 5.8586,3.831 3.3478,2.1892 -0.5473,0.8369 -3.3478,-2.1892 z m 5.8586,3.831 3.3478,2.1892 -0.5473,0.8369 -3.3478,-2.1891 z m 5.8586,3.8311 3.3482,2.1891 -0.548,0.837 -3.3475,-2.1892 z m 5.8582,3.831 3.348,2.1891 -0.547,0.837 -3.348,-2.1892 z m 5.859,3.831 3.348,2.1892 -0.548,0.8369 -3.347,-2.1891 z m 5.859,3.831 3.347,2.1892 -0.547,0.837 -3.348,-2.1892 z m 5.858,3.8311 3.348,2.1892 -0.547,0.8369 -3.348,-2.1892 z m 5.859,3.831 3.348,2.1892 -0.548,0.8369 -3.347,-2.1891 z m 5.858,3.8311 3.348,2.1891 -0.547,0.837 -3.348,-2.1892 z m 5.859,3.831 3.348,2.1892 -0.548,0.8369 -3.347,-2.1892 z m 5.859,3.831 3.347,2.1892 -0.547,0.8369 -3.348,-2.1891 z m 5.363,-0.6748 4.506,7.7265 -8.885,-1.031 z"
         transform="matrix(1,0,0,-1,245.5,562.909)"
         id="path32" />
      <text
         font-family="Verdana, Verdana_MSFontService, sans-serif"
         font-weight="400"
         font-size="15px"
         transform="translate(267.056,478)"
         id="text33">identificatie</text>
      <text
         font-family="Verdana, Verdana_MSFontService, sans-serif"
         font-weight="400"
         font-size="15px"
         transform="translate(352.223,478)"
         id="text34">-</text>
      <text
         font-family="Verdana, Verdana_MSFontService, sans-serif"
         font-weight="400"
         font-size="15px"
         transform="translate(288.303,495)"
         id="text35">middel</text>
      <path
         d="m 0,0.5 h -4 v -1 h 4 z m -7,0 h -4 v -1 h 4 z m -7,0 h -4 v -1 h 4 z m -7,0 h -3.0021 l 0.5,-0.5 v 0.997858 h -1 V 0 c 0,-0.276142 0.2238,-0.5 0.5,-0.5 H -21 Z m -2.5021,3.49786 v 4 h -1 v -4 z m 0,7.00004 v 4 h -1 v -4 z m 0,7 v 4 h -1 v -4 z m 0,7 v 4 h -1 v -4 z m 0,7 v 4 h -1 v -4 z m 0,7 v 4 h -1 v -4 z m 0,7 v 4 h -1 v -4 z m 0,7 v 4 h -1 v -4 z m 0,7 v 4 h -1 v -4 z m 0,7 v 4 h -1 v -4 z m 0,7 v 4 h -1 v -4 z m 0,7 v 4 h -1 v -4 z m 0,7 v 4 h -1 v -4 z m 0,7 v 4 h -1 v -4 z m 0,7.0001 v 4 h -1 v -4 z m 0,7 v 4 h -1 v -4 z m 0,7 v 4 h -1 v -4 z m 0,7 v 4 h -1 v -4 z m 0,7 v 4 h -1 v -4 z m 0,7 v 4 h -1 v -4 z m 0,7 v 4 h -1 v -4 z m 0,7 v 4 h -1 v -4 z m 0,7 v 4 h -1 v -4 z m 0,7 v 4 h -1 v -4 z m 0,7 v 4 h -1 v -4 z m 0,7 v 4 h -1 v -4 z m 0,7 v 4 h -1 v -4 z m 0,7 v 4 h -1 v -4 z m 0,7 v 4 h -1 v -4 z m 0,7 v 4 h -1 v -4 z m 0,7 v 4 h -1 v -4 z m 0,7 v 0.726 l -0.5,-0.5 h 3.2736 v 1 h -3.2736 c -0.2762,0 -0.5,-0.224 -0.5,-0.5 v -0.726 z m 5.7736,0.226 h 4 v 1 h -4 z m 7,0 h 4.00003 v 1 h -4.00003 z m 7.00003,0 h 4.000001 v 1 H -3.72847 Z m 7,0 h 4 v 1 h -4 z m 6.99997,0 h 4 v 1 h -4 z m 7,0 h 4 v 1 h -4 z m 7,0 h 4 v 1 h -4 z m 7,0 h 4 v 1 h -4 z m 7,0 h 4 v 1 h -4 z m 7,0 h 4 v 1 h -4 z m 7,0 h 4 v 1 h -4 z m 7,0 h 4 v 1 h -4 z m 7,0 h 4 v 1 h -4 z m 7,0 h 4 v 1 h -4 z m 7,0 h 4 v 1 h -4 z m 7,0 h 4 v 1 h -4 z m 7,0 h 4 v 1 h -4 z m 7.0005,0 h 4 v 1 h -4 z m 7,0 h 4 v 1 h -4 z m 7,0 h 4 v 1 h -4 z m 7,0 h 4 v 1 h -4 z m 7,0 h 4 v 1 h -4 z m 7,0 h 4 v 1 h -4 z m 7,0 h 4 v 1 h -4 z m 7,0 h 4 v 1 h -4 z m 7,0 h 4 v 1 h -4 z m 7,0 h 4 v 1 h -4 z m 7,0 h 4 v 1 h -4 z m 7,0 h 4 v 1 h -4 z m 7,0 h 4 v 1 h -4 z m 7,0 h 4 v 1 h -4 z m 7,0 h 4 v 1 h -4 z m 7,0 h 4 v 1 h -4 z m 7,0 h 4 v 1 h -4 z m 7,0 h 4 v 1 h -4 z m 7,0 h 4 v 1 h -4 z m 7,0 h 4 v 1 h -4 z m 7,0 h 4 v 1 h -4 z m 7,0 h 4 v 1 h -4 z m 7,0 h 4 v 1 h -4 z m 7,0 h 4 v 1 h -4 z m 7,0 h 4 v 1 h -4 z m 7,0 h 4 v 1 h -4 z m 7,0 h 4 v 1 h -4 z m 7,0 h 4 v 1 h -4 z m 7,0 h 4 v 1 h -4 z m 7,0 h 4 v 1 h -4 z m 7,0 h 4 v 1 h -4 z m 7,0 h 4 v 1 h -4 z m 7,0 h 4 v 1 h -4 z m 7,0 h 4 v 1 h -4 z m 7,0 h 4 v 1 h -4 z m 7,0 h 4 v 1 h -4 z m 7,0 h 4 v 1 h -4 z m 7,0 h 4 v 1 h -4 z m 7,0 h 4 v 1 h -4 z m 7,0 h 4 v 1 h -4 z m 7,0 h 4 v 1 h -4 z m 7,0 h 4 v 1 h -4 z m 7,0 h 4 v 1 h -4 z m 7,0 h 4 v 1 h -4 z m 7,0 h 4 v 1 h -4 z m 7,0 h 4 v 1 h -4 z m 7,0 h 4 v 1 h -4 z m 7,0 h 4 v 1 h -4 z m 7,0 h 3.999 v 1 h -3.999 z m 6.999,0 h 4 v 1 h -4 z m 7,0 h 4 v 1 h -4 z m 7,0 h 4 v 1 h -4 z m 7,0 h 4 v 1 h -4 z m 7,0 h 4 v 1 h -4 z m 7,0 h 4 v 1 h -4 z m 7,0 h 4 v 1 h -4 z m 7,0 h 4 v 1 h -4 z m 7,0 h 4 v 1 h -4 z m 7,0 h 4 v 1 h -4 z m 7,0 h 4 v 1 h -4 z m 7,0 h 4 v 1 h -4 z m 7,0 h 4 v 1 h -4 z m 7,0 h 4 v 1 h -4 z m 7,0 h 4 v 1 h -4 z m 7,0 h 4 v 1 h -4 z m 7,0 h 4 v 1 h -4 z m 7,0 h 4 v 1 h -4 z m 7,0 h 4 v 1 h -4 z m 7,0 h 4 v 1 h -4 z m 7,0 h 4 v 1 h -4 z m 7,0 h 4 v 1 h -4 z m 7,0 h 4 v 1 h -4 z m 7,0 h 4 v 1 h -4 z m 7,0 h 4 v 1 h -4 z m 7,0 h 4 v 1 h -4 z m 7,0 h 4 v 1 h -4 z m 7,0 h 4 v 1 h -4 z m 7,0 h 4 v 1 h -4 z m 7,0 h 4 v 1 h -4 z m 7,0 h 4 v 1 h -4 z m 7,0 h 4 v 1 h -4 z m 7,0 h 4 v 1 h -4 z m 7,0 h 4 v 1 h -4 z m 7,0 h 4 v 1 h -4 z m 7,0 h 4 v 1 h -4 z m 7,0 h 4 v 1 h -4 z m 7,0 h 4 v 1 h -4 z m 7,0 h 4 v 1 h -4 z m 7,0 h 4 v 1 h -4 z m 7,0 h 4 v 1 h -4 z m 7,0 h 4 v 1 h -4 z m 7,0 h 4 v 1 h -4 z m 7,0 h 4 v 1 h -4 z m 6.167,0.166 v -4 h 1 v 4 z m 0,-7 v -4 h 1 v 4 z m 0,-7 v -4 h 1 v 4 z m 0,-7 v -4 h 1 v 4 z m 0,-7 v -4 h 1 v 4 z m 0,-7 v -4 h 1 v 4 z m 0,-7 v -4 h 1 v 4 z m 0,-7 v -4 h 1 v 4 z m 0,-7 v -4 h 1 v 4 z m 0,-7 v -4 h 1 v 4 z m 0,-7 v -4 h 1 v 4 z m 0,-7 v -4 h 1 v 4 z m 0,-7 v -4 h 1 v 4 z m 0,-7 v -4 h 1 v 4 z m 0,-7 v -4 h 1 v 4 z m 0,-7 v -4 h 1 v 4 z m 0,-7 v -4 h 1 v 4 z m 0,-7 v -3.9996 h 1 v 3.9996 z m 0,-6.9996 v -4 h 1 v 4 z m 0,-7 v -4 h 1 v 4 z m 0,-7 v -4 h 1 v 4 z m 0,-7 v -4 h 1 v 4 z m 0,-7 v -4 h 1 v 4 z m 0,-7 v -4 h 1 v 4 z m 0,-7 v -4 h 1 v 4 z m 0,-7 v -4 h 1 v 4 z m 0,-7 v -2.7237 h 1 v 2.7237 z m -3.5,-1.3904 4,-8 4,8 z"
         transform="matrix(1,0,0,-1,70.5001,431.5)"
         id="path35" />
      <path
         d="M 0.00547138,-0.49997 4.00523,-0.456199 3.99429,0.543741 -0.00547138,0.49997 Z M 7.00505,-0.423371 11.0048,-0.3796 10.9939,0.62034 6.99411,0.576569 Z m 6.99955,0.0766 3.9998,0.043771 -0.0109,0.99994 -3.9998,-0.043771 z m 6.9996,0.076599 3.9998,0.043771 -0.011,0.99994 -3.9997,-0.043771 z m 6.9996,0.076599 3.9998,0.043771 -0.011,0.99994 -3.9998,-0.043771 z m 6.9996,0.0766 3.9997,0.0437707 L 38.9922,0.926738 34.9924,0.882967 Z M 42.003,-0.040374 46.0027,0.0033971 45.9918,1.00334 41.992,0.959566 Z m 6.9995,0.0765994 3.9998,0.0437711 -0.011,0.9999435 -3.9997,-0.04377 z m 6.9996,0.0765996 3.9998,0.043771 -0.011,0.999944 -3.9997,-0.04378 z m 6.9996,0.076599 3.9998,0.043771 -0.011,0.999945 -3.9997,-0.04378 z M 70.0013,0.266023 74.001,0.309795 73.9901,1.30973 69.9903,1.26596 Z m 6.9996,0.0766 3.9997,0.043771 L 80.9897,1.38633 76.9899,1.34256 Z M 84.0004,0.419222 88.0002,0.462993 87.9893,1.46293 83.9895,1.41916 Z M 91,0.495821 94.9998,0.539592 94.9888,1.53953 90.9891,1.49576 Z m 6.9996,0.0766 3.9994,0.043771 -0.011,0.999938 -3.9993,-0.04377 z m 6.9994,0.076599 4,0.043771 -0.011,0.999939 -4,-0.04377 z m 7,0.076599 4,0.043772 -0.011,0.999939 -4,-0.04377 z m 6.999,0.0766 4,0.043771 -0.011,0.99994 -4,-0.04377 z m 7,0.076599 4,0.043771 -0.011,0.999941 -4,-0.04377 z m 6.999,0.0766 4,0.043771 -0.011,0.999941 -3.999,-0.04377 z m 7,0.076602 4,0.04377 -0.011,0.99994 -4,-0.04377 z m 7,0.0766 1.691,0.01851 -0.01,0.99994 -1.692,-0.01851 z m 0.397,-3.49587 7.955,4.0873 -8.043,3.91222 z"
         transform="matrix(1,0,0,-1,245.5,592.2)"
         id="path36" />
      <text
         font-family="Verdana, Verdana_MSFontService, sans-serif"
         font-weight="400"
         font-size="15px"
         transform="translate(279.612,559)"
         id="text36">identificatie</text>
      <text
         font-family="Verdana, Verdana_MSFontService, sans-serif"
         font-weight="400"
         font-size="15px"
         transform="translate(364.779,559)"
         id="text37">-</text>
      <text
         font-family="Verdana, Verdana_MSFontService, sans-serif"
         font-weight="400"
         font-size="15px"
         transform="translate(300.859,576)"
         id="text38">middel</text>
      <path
         d="m 0,0.5 h -4 v -1 h 4 z m -7,0 h -4 v -1 h 4 z m -7,0 h -4 v -1 h 4 z m -7,0 h -2.9982 l 0.5,-0.5 v 1.00183 h -1 V 0 c 0,-0.276142 0.2239,-0.5 0.5,-0.5 H -21 Z m -2.4982,3.50183 v 4 h -1 v -4 z m 0,6.99997 v 4 h -1 v -4 z m 0,7 v 4 h -1 v -4 z m 0,7 v 4 h -1 v -4 z m 0,7 v 4 h -1 v -4 z m 0,7 v 4 h -1 v -4 z m 0,7 v 4 h -1 v -4 z m 0,7 v 4 h -1 v -4 z m 0,7 v 4 h -1 v -4 z m 0,7 v 4 h -1 v -4 z m 0,7 v 4 h -1 v -4 z m 0,7 v 4 h -1 v -4 z m 0,7 v 4 h -1 v -4 z m 0,7 v 4 h -1 v -4 z m 0,7.0002 v 4 h -1 v -4 z m 0,7 v 4 h -1 v -4 z m 0,7 v 4 h -1 v -4 z m 0,7 v 4 h -1 v -4 z m 0,7 v 4 h -1 v -4 z m 0,7 v 4 h -1 v -4 z m 0,7 v 4 h -1 v -4 z m 0,7 v 4 h -1 v -4 z m 0,7 v 4 h -1 v -4 z m 0,7 v 4 h -1 v -4 z m 0,7 v 4 h -1 v -4 z m 0,7 v 4 h -1 v -4 z m 0,7 v 4 h -1 v -4 z m 0,7 v 4 h -1 v -4 z m 0,7 v 4 h -1 v -4 z m 0,7 v 4 h -1 v -4 z m 0,7 v 4 h -1 v -4 z m 0,7 v 1.433 l -0.5,-0.5 h 2.567 v 1 h -2.567 c -0.2761,0 -0.5,-0.224 -0.5,-0.5 v -1.433 z m 5.067,0.933 h 4 v 1 h -4 z m 7,0 h 3.99998 v 1 h -3.99998 z m 6.99998,0 h 4.000003 v 1 H -4.43122 Z m 7,0 h 4 v 1 h -4 z m 7,0 h 4.00002 v 1 H 9.56878 Z m 7.00002,0 h 4 v 1 h -4 z m 7,0 h 4 v 1 h -4 z m 7,0 h 4 v 1 h -4 z m 7,0 h 4 v 1 h -4 z m 7,0 h 4 v 1 h -4 z m 7,0 h 4 v 1 h -4 z m 7,0 h 4 v 1 h -4 z m 7,0 h 4 v 1 h -4 z m 7,0 h 4 v 1 h -4 z m 7,0 h 4 v 1 h -4 z m 7,0 h 4 v 1 h -4 z m 7,0 h 4 v 1 h -4 z m 7.0002,0 h 4 v 1 h -4 z m 7,0 h 4 v 1 h -4 z m 7,0 h 4 v 1 h -4 z m 7,0 h 4 v 1 h -4 z m 7,0 h 4 v 1 h -4 z m 7,0 h 4 v 1 h -4 z m 7,0 h 4 v 1 h -4 z m 7,0 h 4 v 1 h -4 z m 7,0 h 4 v 1 h -4 z m 7,0 h 4 v 1 h -4 z m 7,0 h 4 v 1 h -4 z m 7,0 h 4 v 1 h -4 z m 7,0 h 4 v 1 h -4 z m 7,0 h 4 v 1 h -4 z m 7,0 h 4 v 1 h -4 z m 7,0 h 4 v 1 h -4 z m 7,0 h 4 v 1 h -4 z m 7,0 h 4 v 1 h -4 z m 7,0 h 4 v 1 h -4 z m 7,0 h 4 v 1 h -4 z m 7,0 h 4 v 1 h -4 z m 7,0 h 4 v 1 h -4 z m 7,0 h 4 v 1 h -4 z m 7,0 h 4 v 1 h -4 z m 7,0 h 4 v 1 h -4 z m 7,0 h 4 v 1 h -4 z m 7,0 h 4 v 1 h -4 z m 7,0 h 4 v 1 h -4 z m 7,0 h 4 v 1 h -4 z m 7,0 h 4 v 1 h -4 z m 7,0 h 4 v 1 h -4 z m 7,0 h 4 v 1 h -4 z m 7,0 h 4 v 1 h -4 z m 7,0 h 4 v 1 h -4 z m 7,0 h 4 v 1 h -4 z m 7,0 h 4 v 1 h -4 z m 7,0 h 4 v 1 h -4 z m 7,0 h 4 v 1 h -4 z m 7,0 h 4 v 1 h -4 z m 7,0 h 4 v 1 h -4 z m 7,0 h 4 v 1 h -4 z m 7,0 h 4 v 1 h -4 z m 7,0 h 4 v 1 h -4 z m 7,0 h 4 v 1 h -4 z m 7,0 h 4 v 1 h -4 z m 7,0 h 2.953 l -0.5,0.5 v -1.047 h 1 v 1.047 c 0,0.276 -0.224,0.5 -0.5,0.5 h -2.953 z m 2.453,-3.547 v -4 h 1 v 4 z m 0,-7 v -4 h 1 v 4 z m 0,-7 v -4 h 1 v 4 z m 0,-7 v -0.009 h 1 v 0.009 z m -3.5,1.324 4,-8 4,8 z"
         transform="matrix(1,0,0,-1,70.5001,431.212)"
         id="path38" />
      <path
         d="m 554.5,270 h 4 v 1 h -4 z m 7,0 h 4 v 1 h -4 z m 7,0 h 4 v 1 h -4 z m 7,0 h 4 v 1 h -4 z m 7,0 h 4 v 1 h -4 z m 7,0 h 4 v 1 h -4 z m 7,0 h 4 v 1 h -4 z m 7,0 h 4 v 1 h -4 z m 7,0 h 4 v 1 h -4 z m 7,0 h 4 v 1 h -4 z m 7,0 h 4 v 1 h -4 z m 7,0 h 4 v 1 h -4 z m 7,0 h 4 v 1 h -4 z m 7,0 h 4 v 1 h -4 z m 7,0 h 4 v 1 h -4 z m 7,0 h 4 v 1 h -4 z m 7,0 h 4 v 1 h -4 z m 7,0 h 4 v 1 h -4 z m 7,0 h 4 v 1 h -4 z m 7,0 h 4 v 1 h -4 z m 7,0 h 4 v 1 h -4 z m 7,0 h 4 v 1 h -4 z m 7,0 h 4 v 1 h -4 z m 7,0 h 4 v 1 h -4 z m 7,0 h 4 v 1 h -4 z m 7,0 h 4 v 1 h -4 z m 7,0 h 4 v 1 h -4 z m 7,0 h 4 v 1 h -4 z m 7,0 h 4 v 1 h -4 z m 7,0 h 4 v 1 h -4 z m 7,0 h 4 v 1 h -4 z m 7,0 h 4 v 1 h -4 z m 7,0 h 4 v 1 h -4 z m 7,0 h 4 v 1 h -4 z m 7,0 h 4 v 1 h -4 z m 7,0 h 0.692 c 0.276,0 0.5,0.224 0.5,0.5 v 3.308 h -1 V 270.5 l 0.5,0.5 H 799.5 Z m 1.192,6.808 v 4 h -1 v -4 z m 0,7 v 4 h -1 v -4 z m 0,7 v 4 h -1 v -4 z m 0,7 v 4 h -1 v -4 z m 0,7 v 4 h -1 v -4 z m 0,7 v 4 h -1 v -4 z m 0,7 v 4 h -1 v -4 z m 0,7 v 4 h -1 v -4 z m 0,7 v 4 h -1 v -4 z m 0,7 v 4 h -1 v -4 z m 0,7 v 4 h -1 v -4 z m 0,7 v 4 h -1 v -4 z m 0,7 v 4 h -1 v -4 z m 0,7 v 4 h -1 v -4 z m 0,7 v 4 h -1 v -4 z m 0,7 v 4 h -1 v -4 z m 0,7 v 4 h -1 v -4 z m 3.5,4.404 -4,8 -4,-8 z"
         id="path39" />
      <rect
         x="401.5"
         y="240.5"
         width="175"
         height="60"
         stroke="#000000"
         stroke-linejoin="round"
         stroke-miterlimit="10"
         fill="#ffffb5"
         id="rect39" />
      <text
         font-family="Verdana, Verdana_MSFontService, sans-serif"
         font-weight="400"
         font-size="16px"
         transform="translate(437.171,267)"
         id="text39">M</text>
      <text
         font-family="Verdana, Verdana_MSFontService, sans-serif"
         font-weight="400"
         font-size="16px"
         transform="translate(450.671,267)"
         id="text40">achtigings</text>
      <text
         font-family="Verdana, Verdana_MSFontService, sans-serif"
         font-weight="400"
         font-size="16px"
         transform="translate(532.338,267)"
         id="text41">-</text>
      <text
         font-family="Verdana, Verdana_MSFontService, sans-serif"
         font-weight="400"
         font-size="16px"
         transform="translate(464.085,286)"
         id="text42">dienst</text>
      <text
         font-family="Verdana, Verdana_MSFontService, sans-serif"
         font-weight="400"
         font-size="15px"
         transform="translate(639.734,259)"
         id="text43">machtiging</text>
      <path
         d="m 576.5,270 h 4 v 1 h -4 z m 7,0 h 4 v 1 h -4 z m 7,0 h 4 v 1 h -4 z m 7,0 h 4 v 1 h -4 z m 7,0 h 4 v 1 h -4 z m 7,0 h 0.034 c 0.277,0 0.5,0.224 0.5,0.5 v 3.966 h -1 V 270.5 l 0.5,0.5 H 611.5 Z m 0.534,7.466 v 4 h -1 v -4 z m 0,7 v 4 h -1 v -4 z m 0,7 v 4 h -1 v -4 z m 0,7 v 4 h -1 v -4 z m 0,7 v 4 h -1 v -4 z m 0,7 v 4 h -1 v -4 z m 0,7 v 4 h -1 v -4 z m 0,7 v 4 h -1 v -4 z m 0,7 v 4 h -1 v -4 z m 0,7 v 4 h -1 v -4 z m 0,7 v 4 h -1 v -4 z m 0,7 v 4 h -1 v -4 z m 0,7 v 4 h -1 v -4 z m 0,7 v 4 h -1 v -4 z m 0,7 v 4 h -1 v -4 z m 0,7 v 4 h -1 v -4 z m 0,7 v 4 h -1 v -4 z m 0,7 v 4 h -1 v -4 z m 0,7 v 4 h -1 v -4 z m 0,7 v 4 h -1 v -4 z m 0,7 v 4 h -1 v -4 z m 0,7 v 4 h -1 v -4 z m 0,7 v 4 h -1 v -4 z m 0,7 v 4 h -1 v -4 z m 0,7 v 4 h -1 v -4 z m 0,7 v 4 h -1 v -4 z m 0,7 v 4 h -1 v -4 z m 0,7 v 4 h -1 v -4 z m 0,7 v 4 h -1 v -4 z m 0,7 v 4 h -1 v -4 z m 0,7 v 4 h -1 v -4 z m 0,7 v 4 h -1 v -4 z m 0,7 v 4 h -1 v -4 z m 0,7 v 4 h -1 v -4 z m 0,7 v 4 h -1 v -4 z m 0,7 v 4 h -1 v -4 z m 0,7 v 4 h -1 v -4 z m 0,7 v 4 h -1 v -4 z m 0,7 v 4 h -1 v -4 z m 0,7 v 4 h -1 v -4 z m 0,7 v 4 h -1 v -4 z m 0,7 v 4 h -1 v -4 z m 0,7 v 4 h -1 v -4 z m 0,7 v 4 h -1 v -4 z m 0,7 v 4 h -1 v -4 z m -2.741,5.258 h -4 v -1 h 4 z m -7,0 h -4 v -1 h 4 z m -7,0 h -4 v -1 h 4 z m -7,0 H 584.5 v -1 h 3.793 z m -2.46,3.5 -8,-4 8,-4 z"
         id="path43" />
      <text
         font-family="Verdana, Verdana_MSFontService, sans-serif"
         font-weight="400"
         font-size="15px"
         transform="translate(621.777,552)"
         id="text44">machtiging</text>
      <path
         d="m 0,-0.5 h 4 v 1 H 0 Z m 7,0 h 4 v 1 H 7 Z m 7,0 h 4 v 1 h -4 z m 7,0 h 4 v 1 h -4 z m 7,0 h 4 v 1 h -4 z m 7,0 h 4 v 1 h -4 z m 7,0 h 4 v 1 h -4 z m 5.963,2.03699 v 4 h -1 v -4 z m 0,7 V 12.537 h -1 V 8.53699 Z m 0,7.00001 v 4 h -1 v -4 z m 0,7 v 4 h -1 v -4 z m 0,7 v 4 h -1 v -4 z m 0,7 v 4 h -1 v -4 z m 0,7 v 4 h -1 v -4 z m 0,7 v 4 h -1 v -4 z m 0,7 v 4 h -1 v -4 z m 0,7 v 4 h -1 v -4 z m 0,7 v 4 h -1 v -4 z m 0,7 v 4 h -1 v -4 z m 0,7 v 4 h -1 v -4 z m 0,7 v 4 h -1 v -4 z m 0,7 v 4 h -1 v -4 z m 0,7 v 4 h -1 v -4 z m 0,7 v 4 h -1 v -4 z m 0,7 v 4 h -1 v -4 z m 0,7 v 4 h -1 v -4 z m 0,7 v 4 h -1 v -4 z m 0,7 v 4 h -1 v -4 z m 0,7 v 4 h -1 v -4 z m 0,7 v 4 h -1 v -4 z m 0,7 v 4 h -1 v -4 z m 0,7 v 4 h -1 v -4 z m 0,7 v 4 h -1 v -4 z m 0,7 v 4 h -1 v -4 z m 0,7 v 4 h -1 v -4 z m 0,7 v 4 h -1 v -4 z m 0,7 v 4 h -1 v -4 z m 0,7 v 4 h -1 v -4 z m 0,7 v 4 h -1 v -4 z m 0,7 v 4 h -1 v -4 z m 0,7 v 4 h -1 v -4 z m 0,7 v 4 h -1 v -4 z m 0,7 v 4 h -1 v -4 z m 0,7 v 4 h -1 v -4 z m 0,7 v 4 h -1 v -4 z m 0,7 v 4 h -1 v -4 z m 0,7 v 4 h -1 v -4 z m 0,7 v 4 h -1 v -4 z m 0,7 v 4 h -1 v -4 z m 0,7 v 4 h -1 v -4 z m 0,7 v 4 h -1 v -4 z m 0,7 v 4 h -1 v -4 z m 0,7 v 4 h -1 v -4 z m 0,7 v 4 h -1 v -4 z m 0,7 v 4 h -1 v -4 z m 0,7 v 4 h -1 v -4 z m 0,7 v 4 h -1 v -4 z m 0,7 v 4 h -1 v -4 z m 0,7 v 4 h -1 v -4 z m 0,7 v 4 h -1 v -4 z m 0,7 v 4 h -1 v -4 z m 0,7 v 4 h -1 v -4 z m 0,7 v 4 h -1 v -4 z m 0,7 v 4 h -1 v -4 z m 0,7 v 4 h -1 v -4 z m 0,7 v 4 h -1 v -4 z m 0,7 v 4 h -1 v -4 z m 0,7 v 4 h -1 v -4 z m 0,7 v 4 h -1 v -4 z m 0,7 v 4 h -1 v -4 z m 0,7 v 4 h -1 v -4 z m 0,7 v 4 h -1 v -4 z m 0,7 v 4 h -1 v -4 z m 0,7 v 4 h -1 v -4 z m 0,7 v 4 h -1 v -4 z m 0,7 v 4 h -1 v -4 z m 0,7 v 4 h -1 v -4 z m 0,7 v 4 h -1 v -4 z m 0,7 v 4 h -1 v -4 z m 0,7 v 4 h -1 v -4 z m 0,7 v 4 h -1 v -4 z m 0,7 v 4 h -1 v -4 z m 0,7 v 4 h -1 v -4 z m 0,7 v 4 h -1 v -4 z m 0,7 v 4 h -1 v -4 z m 0,7 v 4 h -1 v -4 z m 0,7 v 4 h -1 v -4 z m 0,7 v 4 h -1 v -4 z m 0,7 v 4 h -1 v -4 z m 0,7 v 4 h -1 v -4 z m 0,7 v 4 h -1 v -4 z m 0,7 v 4 h -1 v -4 z m 0,7 v 4 h -1 v -4 z m 0,7 v 1.09 l -0.5,-0.5 h 2.9096 v 1 H 47.463 c -0.2761,0 -0.5,-0.223 -0.5,-0.5 v -1.09 z m 5.4096,0.59 h 4 v 1 h -4 z m 7,0 h 4 v 1 h -4 z m 7,0 h 4 v 1 h -4 z m 7,0 h 4 v 1 h -4 z m 7,0 h 4 v 1 h -4 z m 7,0 h 4 v 1 h -4 z m 5.1736,-3.5 7.9998,4 -7.9998,4 z"
         transform="matrix(0,1,1,0,160.5,299.5)"
         id="path44" />
      <path
         d="m 576.5,270 h 4 v 1 h -4 z m 7,0 h 4 v 1 h -4 z m 7,0 h 4 v 1 h -4 z m 7,0 h 4 v 1 h -4 z m 7,0 h 4 v 1 h -4 z m 7,0 h 4 v 1 h -4 z m 7,0 h 4 v 1 h -4 z m 7,0 h 4 v 1 h -4 z m 7,0 h 4 v 1 h -4 z m 7,0 h 4 v 1 h -4 z m 7,0 h 4 v 1 h -4 z m 7,0 h 4 v 1 h -4 z m 7,0 h 4 v 1 h -4 z m 7,0 h 4 v 1 h -4 z m 7,0 h 4 v 1 h -4 z m 7,0 h 4 v 1 h -4 z m 7,0 h 4 v 1 h -4 z m 7,0 h 4 v 1 h -4 z m 7,0 h 4 v 1 h -4 z m 7,0 h 4 v 1 h -4 z m 7,0 h 4 v 1 h -4 z m 7,0 h 4 v 1 h -4 z m 7,0 h 4 v 1 h -4 z m 7,0 h 4 v 1 h -4 z m 7,0 h 4 v 1 h -4 z m 7,0 h 4 v 1 h -4 z m 7,0 h 4 v 1 h -4 z m 7,0 h 4 v 1 h -4 z m 7,0 h 4 v 1 h -4 z m 7,0 h 4 v 1 h -4 z m 7,0 h 4 v 1 h -4 z m 7,0 h 4 v 1 h -4 z m 7,0 h 4 v 1 h -4 z m 7,0 h 4 v 1 h -4 z m 7,0 h 4 v 1 h -4 z m 7,0 h 4 v 1 h -4 z m 7,0 h 4 v 1 h -4 z m 7,0 h 4 v 1 h -4 z m 7,0 h 4 v 1 h -4 z m 7,0 h 4 v 1 h -4 z m 7,0 h 4 v 1 h -4 z m 7,0 h 4 v 1 h -4 z m 7,0 h 4 v 1 h -4 z m 7,0 h 4 v 1 h -4 z m 7,0 h 4 v 1 h -4 z m 7,0 h 4 v 1 h -4 z m 7,0 h 4 v 1 h -4 z m 7,0 h 4 v 1 h -4 z m 7,0 h 4 v 1 h -4 z m 7,0 h 4 v 1 h -4 z m 7,0 h 4 v 1 h -4 z m 7,0 h 4 v 1 h -4 z m 7,0 h 4 v 1 h -4 z m 7,0 h 4 v 1 h -4 z m 7,0 h 4 v 1 h -4 z m 7,0 h 4 v 1 h -4 z m 7,0 h 4 v 1 h -4 z m 7,0 h 4 v 1 h -4 z m 7,0 h 4 v 1 h -4 z m 7,0 h 4 v 1 h -4 z m 7,0 h 4 v 1 h -4 z m 7,0 h 4 v 1 h -4 z m 7,0 h 4 v 1 h -4 z m 7,0 h 4 v 1 h -4 z m 7,0 h 4 v 1 h -4 z m 7,0 h 4 v 1 h -4 z m 7,0 h 4 v 1 h -4 z m 7,0 h 4 v 1 h -4 z m 7,0 h 4 v 1 h -4 z m 7,0 h 4 v 1 h -4 z m 7,0 h 4 v 1 h -4 z m 7,0 h 4 v 1 h -4 z m 7,0 h 4 v 1 h -4 z m 7,0 h 4 v 1 h -4 z m 7,0 h 4 v 1 h -4 z m 7,0 h 4 v 1 h -4 z m 7,0 h 4 v 1 h -4 z m 7,0 h 4 v 1 h -4 z m 7,0 h 4 v 1 h -4 z m 7,0 h 4 v 1 h -4 z m 7,0 h 4 v 1 h -4 z m 7,0 h 4 v 1 h -4 z m 7,0 h 4 v 1 h -4 z m 5.06,2.944 v 4 h -1 v -4 z m 0,7 v 4 h -1 v -4 z m 0,7 v 4 h -1 v -4 z m 0,7 v 4 h -1 v -4 z m 0,7 v 4 h -1 v -4 z m 0,7 v 4 h -1 v -4 z m 0,7 v 4 h -1 v -4 z m 0,7 v 4 h -1 v -4 z m 0,7 v 4 h -1 v -4 z m 0,7 v 4 h -1 v -4 z m 0,7 v 4 h -1 v -4 z m 0,7 v 4 h -1 v -4 z m 0,7 v 4 h -1 v -4 z m 0,7 v 4 h -1 v -4 z m 0,7 v 4 h -1 v -4 z m 0,7 v 4 h -1 v -4 z m 0,7 v 4 h -1 v -4 z m 0,7 v 1.87 h -1 v -1.87 z m 3.5,0.536 -4,8 -4,-8 z"
         id="path45" />
      <path
         d="m 0,-0.5 h 4 v 1 H 0 Z m 7,0 h 4 v 1 H 7 Z m 7,0 h 4 v 1 h -4 z m 7,0 h 4 v 1 h -4 z m 7,0 h 4 v 1 h -4 z m 7,0 h 4 v 1 h -4 z m 7,0 h 4 v 1 h -4 z m 5.5975,2.40246 v 4 h -1 v -4 z m 0,7 v 4.00004 h -1 V 8.90246 Z m 0,7.00004 v 4 h -1 v -4 z m 0,7 v 4 h -1 v -4 z m 0,7 v 4 h -1 v -4 z m 0,7 v 4 h -1 v -4 z m 0,7 v 4 h -1 v -4 z m 0,7 v 4 h -1 v -4 z m 0,7 v 4 h -1 v -4 z m 0,7 v 4 h -1 v -4 z m 0,7 v 4 h -1 v -4 z m 0,7 v 4 h -1 v -4 z m 0,7 v 4 h -1 v -4 z m 0,7 v 4 h -1 v -4 z m 0,7 v 3.9995 h -1 v -3.9995 z m 0,6.9995 v 4 h -1 v -4 z m 0,7 v 4 h -1 v -4 z m 0,7 v 4 h -1 v -4 z m 0,7 v 4 h -1 v -4 z m 0,7 v 4 h -1 v -4 z m 0,7 v 4 h -1 v -4 z m 0,7 v 4 h -1 v -4 z m 0,7 v 4 h -1 v -4 z m 0,7 v 4 h -1 v -4 z m 0,7 v 4 h -1 v -4 z m 0,7 v 4 h -1 v -4 z m 0,7 v 4 h -1 v -4 z m 0,7 v 4 h -1 v -4 z m 0,7 v 4 h -1 v -4 z m 0,7 v 4 h -1 v -4 z m 0,7 v 4 h -1 v -4 z m 0,7 v 4 h -1 v -4 z m 0,7 v 4 h -1 v -4 z m 0,7 v 4 h -1 v -4 z m 0,7 v 4 h -1 v -4 z m 0,7 v 4 h -1 v -4 z m 0,7 v 4 h -1 v -4 z m 0,7 v 4 h -1 v -4 z m 0,7 v 4 h -1 v -4 z m 0,7 v 4 h -1 v -4 z m 0,7 v 4 h -1 v -4 z m 0,7 v 4 h -1 v -4 z m 0,7 v 4 h -1 v -4 z m 0,7 v 4 h -1 v -4 z m 0,7 v 4 h -1 v -4 z m 0,7 v 4 h -1 v -4 z m 0,7 v 4 h -1 v -4 z m 0,7 v 4 h -1 v -4 z m 0,7 v 4 h -1 v -4 z m 0,7 v 4 h -1 v -4 z m 0,7 v 4 h -1 v -4 z m 0,7 v 4 h -1 v -4 z m 0,7 v 4 h -1 v -4 z m 0,7 v 4 h -1 v -4 z m 0,7 v 4 h -1 v -4 z m 0,7 v 4 h -1 v -4 z m 0,7 v 4 h -1 v -4 z m 0,7 v 4 h -1 v -4 z m 0,7 v 4 h -1 v -4 z m 0,7 v 4 h -1 v -4 z m 0,7 v 4 h -1 v -4 z m 0,7 v 4 h -1 v -4 z m 0,7 v 4 h -1 v -4 z m 0,7 v 4 h -1 v -4 z m 0,7 v 4 h -1 v -4 z m 0,7 v 4 h -1 v -4 z m 0,7 v 4 h -1 v -4 z m 0,7 v 4 h -1 v -4 z m 0,7 v 4 h -1 v -4 z m 0,7 v 4 h -1 v -4 z m 0,7 v 4 h -1 v -4 z m 0,7 v 4 h -1 v -4 z m 0,7 v 4 h -1 v -4 z m 0,7 v 4 h -1 v -4 z m 0,7 v 4 h -1 v -4 z m 0,7 v 4 h -1 v -4 z m 0,7 v 4 h -1 v -4 z m 0,7 v 4 h -1 v -4 z m 0,7 v 4 h -1 v -4 z m 0,7 v 4 h -1 v -4 z m 0,7 v 4 h -1 v -4 z m 0,7 v 4 h -1 v -4 z m 0,7 v 4 h -1 v -4 z m 0,7 v 4 h -1 v -4 z m 0,7 v 4 h -1 v -4 z m 0,7 v 4 h -1 v -4 z m 0,7 v 4 h -1 v -4 z m 0,7 v 4 h -1 v -4 z m 0,7 v 4 h -1 v -4 z m 0,7 v 4 h -1 v -4 z m 0,7 v 4 h -1 v -4 z m 0,7 v 4 h -1 v -4 z m 0,7 v 4 h -1 v -4 z m 0,7 v 4 h -1 v -4 z m 0,7 v 4 h -1 v -4 z m 0,7 v 4 h -1 v -4 z m 0,7 v 4 h -1 v -4 z m 0,7 v 4 h -1 v -4 z m 0,7 v 4 h -1 v -4 z m 0,7 v 4 h -1 v -4 z m 0,7 v 4 h -1 v -4 z m 0,7 v 4 h -1 v -4 z m 0,7 v 4 h -1 v -4 z m 0,7 v 4 h -1 v -4 z m 0,7 v 4 h -1 v -4 z m 0,7 v 4 h -1 v -4 z m 0,7 v 4 h -1 v -4 z m 0,7 v 4 h -1 v -4 z m 0,7 v 4 h -1 v -4 z m 0,7 v 4 h -1 v -4 z m 0,7 v 4 h -1 v -4 z m 0,7 v 4 h -1 v -4 z m 0,7 v 4 h -1 v -4 z m 0,7 v 4 h -1 v -4 z m 0,7 v 4 h -1 v -4 z m 0,7 v 4 h -1 v -4 z m 0,7 v 4 h -1 v -4 z m 0,7 v 4 h -1 v -4 z m 0,7 v 4 h -1 v -4 z m 0,7 v 4 h -1 v -4 z m 0,7 v 4 h -1 v -4 z m 0,7 v 4 h -1 v -4 z m 0,7 v 4 h -1 v -4 z m 0,7 v 4 h -1 v -4 z m 0,7 v 4 h -1 v -4 z m 0,7 v 4 h -1 v -4 z m 0,7 v 4 h -1 v -4 z m 0,7 v 4 h -1 v -4 z m 0,7 v 4 h -1 v -4 z m 0,7 v 4 h -1 v -4 z m 0,7 v 4 h -1 v -4 z m 0,7 v 4 h -1 v -4 z m 0,7 v 4 h -1 v -4 z m 0,7 v 4 h -1 v -4 z m 0,7 v 4 h -1 v -4 z m 0,7 v 4 h -1 v -4 z m 0,7 v 4 h -1 v -4 z m 0,7 v 4 h -1 v -4 z m 0,7 v 4 h -1 v -4 z m 0,7 v 4 h -1 v -4 z m 0,7 v 4 h -1 v -4 z m 0,7 v 4 h -1 v -4 z m 0.5317,5.469 h 4 v 1 h -4 z m 7,0 h 4 v 1 h -4 z m 7,0 h 4 v 1 h -4 z m 7,0 h 4 v 1 h -4 z m 7,0 h 4 v 1 h -4 z m 7,0 h 4 v 1 h -4 z m 7,0 h 4 v 1 h -4 z m 2.6853,-3.5 7.9995,4 -7.9995,4 z"
         transform="matrix(0,1,1,0,160.5,299.5)"
         id="path46" />
      <text
         font-family="Verdana, Verdana_MSFontService, sans-serif"
         font-weight="400"
         font-size="15px"
         transform="translate(930.928,458)"
         id="text46">bevoegdheids</text>
      <text
         font-family="Verdana, Verdana_MSFontService, sans-serif"
         font-weight="400"
         font-size="15px"
         transform="translate(1032.09,458)"
         id="text47">-</text>
      <text
         font-family="Verdana, Verdana_MSFontService, sans-serif"
         font-weight="400"
         font-size="15px"
         transform="translate(947.848,475)"
         id="text48">verklaring</text>
    </g>
  </g>
</svg>
